<?xml version="1.0" encoding="utf-8" standalone="no"?>
<!DOCTYPE svg PUBLIC "-//W3C//DTD SVG 1.1//EN"
  "http://www.w3.org/Graphics/SVG/1.1/DTD/svg11.dtd">
<svg xmlns:xlink="http://www.w3.org/1999/xlink" width="928.8pt" height="444.24pt" viewBox="0 0 928.8 444.24" xmlns="http://www.w3.org/2000/svg" version="1.1">
 <metadata>
  <rdf:RDF xmlns:dc="http://purl.org/dc/elements/1.1/" xmlns:cc="http://creativecommons.org/ns#" xmlns:rdf="http://www.w3.org/1999/02/22-rdf-syntax-ns#">
   <cc:Work>
    <dc:type rdf:resource="http://purl.org/dc/dcmitype/StillImage"/>
    <dc:date>2026-02-26T07:40:27.584081</dc:date>
    <dc:format>image/svg+xml</dc:format>
    <dc:creator>
     <cc:Agent>
      <dc:title>Matplotlib v3.10.8, https://matplotlib.org/</dc:title>
     </cc:Agent>
    </dc:creator>
   </cc:Work>
  </rdf:RDF>
 </metadata>
 <defs>
  <style type="text/css">*{stroke-linejoin: round; stroke-linecap: butt}</style>
 </defs>
 <g id="figure_1">
  <g id="patch_1">
   <path d="M 0 444.24 
L 928.8 444.24 
L 928.8 -0 
L 0 -0 
z
" style="fill: #ffffff"/>
  </g>
  <g id="axes_1">
   <g id="patch_2">
    <path d="M 233.1 199.017912 
Q 233.1 255.34375 233.1 309.43352 
" style="fill: none; stroke: #444444; stroke-width: 2; stroke-linecap: round"/>
    <path d="M 237.1 301.43352 
L 233.1 309.43352 
L 229.1 301.43352 
z
" style="fill: #444444; stroke: #444444; stroke-width: 2; stroke-linecap: round"/>
   </g>
   <g id="patch_3">
    <path d="M 160.812 208.102725 
L 305.388 208.102725 
Q 316.683 208.102725 316.683 199.017912 
L 316.683 151.776887 
Q 316.683 142.692075 305.388 142.692075 
L 160.812 142.692075 
Q 149.517 142.692075 149.517 151.776887 
L 149.517 199.017912 
Q 149.517 208.102725 160.812 208.102725 
z
" clip-path="url(#p67cbdddf9e)" style="fill: #2c3e50; opacity: 0.95"/>
   </g>
   <g id="patch_4">
    <path d="M 160.812 367.995425 
L 305.388 367.995425 
Q 316.683 367.995425 316.683 358.910612 
L 316.683 311.669587 
Q 316.683 302.584775 305.388 302.584775 
L 160.812 302.584775 
Q 149.517 302.584775 149.517 311.669587 
L 149.517 358.910612 
Q 149.517 367.995425 160.812 367.995425 
z
" clip-path="url(#p67cbdddf9e)" style="fill: #2980b9; opacity: 0.95"/>
   </g>
   <g id="text_1">
    <!-- Parent–Subsidiary Relationship -->
    <g style="fill: #2c3e50" transform="translate(136.299141 59.6475) scale(0.11 -0.11)">
     <defs>
      <path id="DejaVuSerif-Bold-50" d="M 300 0 
L 300 378 
L 897 378 
L 897 4288 
L 300 4288 
L 300 4666 
L 2956 4666 
Q 3734 4666 4193 4295 
Q 4653 3925 4653 3303 
Q 4653 2678 4192 2304 
Q 3731 1931 2956 1931 
L 2100 1931 
L 2100 378 
L 2853 378 
L 2853 0 
L 300 0 
z
M 2100 2309 
L 2450 2309 
Q 2856 2309 3098 2579 
Q 3341 2850 3341 3303 
Q 3341 3753 3100 4020 
Q 2859 4288 2450 4288 
L 2100 4288 
L 2100 2309 
z
" transform="scale(0.015625)"/>
      <path id="DejaVuSerif-Bold-61" d="M 3525 2041 
L 3525 378 
L 4000 378 
L 4000 0 
L 2419 0 
L 2419 422 
Q 2200 159 1931 34 
Q 1663 -91 1319 -91 
Q 809 -91 536 182 
Q 263 456 263 966 
Q 263 1525 655 1803 
Q 1047 2081 1838 2081 
L 2419 2081 
L 2419 2278 
Q 2419 2681 2228 2873 
Q 2038 3066 1638 3066 
Q 1306 3066 1126 2930 
Q 947 2794 872 2484 
L 519 2484 
L 519 3200 
Q 816 3306 1134 3359 
Q 1453 3413 1806 3413 
Q 2697 3413 3111 3081 
Q 3525 2750 3525 2041 
z
M 2419 1044 
L 2419 1709 
L 2003 1709 
Q 1694 1709 1528 1540 
Q 1363 1372 1363 1056 
Q 1363 741 1483 584 
Q 1603 428 1850 428 
Q 2106 428 2262 597 
Q 2419 766 2419 1044 
z
" transform="scale(0.015625)"/>
      <path id="DejaVuSerif-Bold-72" d="M 3438 3359 
L 3438 2369 
L 3084 2369 
Q 3066 2634 2941 2764 
Q 2816 2894 2578 2894 
Q 2216 2894 2006 2575 
Q 1797 2256 1797 1691 
L 1797 378 
L 2400 378 
L 2400 0 
L 219 0 
L 219 378 
L 691 378 
L 691 2944 
L 184 2944 
L 184 3322 
L 1797 3322 
L 1797 2731 
Q 1959 3078 2226 3245 
Q 2494 3413 2881 3413 
Q 2978 3413 3117 3398 
Q 3256 3384 3438 3359 
z
" transform="scale(0.015625)"/>
      <path id="DejaVuSerif-Bold-65" d="M 2566 1875 
Q 2566 2531 2444 2795 
Q 2322 3059 2028 3059 
Q 1744 3059 1620 2800 
Q 1497 2541 1497 1931 
L 1497 1875 
L 2566 1875 
z
M 3781 1503 
L 1497 1503 
L 1497 1478 
Q 1497 834 1690 548 
Q 1884 263 2316 263 
Q 2675 263 2897 453 
Q 3119 644 3181 1006 
L 3700 1006 
Q 3566 441 3166 175 
Q 2766 -91 2047 -91 
Q 1184 -91 723 364 
Q 263 819 263 1663 
Q 263 2488 734 2950 
Q 1206 3413 2047 3413 
Q 2872 3413 3312 2927 
Q 3753 2441 3781 1503 
z
" transform="scale(0.015625)"/>
      <path id="DejaVuSerif-Bold-6e" d="M 219 0 
L 219 378 
L 691 378 
L 691 2944 
L 219 2944 
L 219 3322 
L 1797 3322 
L 1797 2853 
Q 1997 3150 2253 3281 
Q 2509 3413 2900 3413 
Q 3459 3413 3745 3083 
Q 4031 2753 4031 2113 
L 4031 378 
L 4506 378 
L 4506 0 
L 2522 0 
L 2522 378 
L 2925 378 
L 2925 2144 
Q 2925 2566 2817 2730 
Q 2709 2894 2444 2894 
Q 2109 2894 1953 2648 
Q 1797 2403 1797 1869 
L 1797 378 
L 2203 378 
L 2203 0 
L 219 0 
z
" transform="scale(0.015625)"/>
      <path id="DejaVuSerif-Bold-74" d="M 634 2944 
L 153 2944 
L 153 3322 
L 634 3322 
L 634 4353 
L 1741 4353 
L 1741 3322 
L 2663 3322 
L 2663 2944 
L 1741 2944 
L 1741 909 
Q 1741 475 1809 369 
Q 1878 263 2059 263 
Q 2259 263 2356 397 
Q 2453 531 2459 813 
L 2925 813 
Q 2897 313 2651 111 
Q 2406 -91 1806 -91 
Q 1122 -91 878 123 
Q 634 338 634 909 
L 634 2944 
z
" transform="scale(0.015625)"/>
      <path id="DejaVuSerif-Bold-2013" d="M 344 2075 
L 2856 2075 
L 2856 1325 
L 344 1325 
L 344 2075 
z
" transform="scale(0.015625)"/>
      <path id="DejaVuSerif-Bold-53" d="M 494 225 
L 494 1331 
L 891 1331 
Q 981 806 1318 547 
Q 1656 288 2253 288 
Q 2738 288 2991 472 
Q 3244 656 3244 1013 
Q 3244 1294 3072 1450 
Q 2900 1606 2363 1741 
L 1663 1913 
Q 978 2088 700 2398 
Q 422 2709 422 3284 
Q 422 3978 883 4364 
Q 1344 4750 2175 4750 
Q 2584 4750 3026 4681 
Q 3469 4613 3944 4475 
L 3944 3444 
L 3547 3444 
Q 3456 3925 3150 4148 
Q 2844 4372 2278 4372 
Q 1816 4372 1580 4211 
Q 1344 4050 1344 3731 
Q 1344 3441 1506 3289 
Q 1669 3138 2303 2975 
L 3003 2803 
Q 3653 2641 3945 2297 
Q 4238 1953 4238 1350 
Q 4238 644 3750 276 
Q 3263 -91 2316 -91 
Q 1859 -91 1409 -12 
Q 959 66 494 225 
z
" transform="scale(0.015625)"/>
      <path id="DejaVuSerif-Bold-75" d="M 3963 3322 
L 3963 378 
L 4434 378 
L 4434 0 
L 2853 0 
L 2853 469 
Q 2656 172 2400 40 
Q 2144 -91 1753 -91 
Q 1194 -91 908 239 
Q 622 569 622 1209 
L 622 2944 
L 147 2944 
L 147 3322 
L 1728 3322 
L 1728 1381 
Q 1728 763 1831 595 
Q 1934 428 2209 428 
Q 2544 428 2698 675 
Q 2853 922 2853 1459 
L 2853 2944 
L 2450 2944 
L 2450 3322 
L 3963 3322 
z
" transform="scale(0.015625)"/>
      <path id="DejaVuSerif-Bold-62" d="M 622 378 
L 622 4488 
L 147 4488 
L 147 4863 
L 1728 4863 
L 1728 2900 
Q 1869 3159 2106 3286 
Q 2344 3413 2694 3413 
Q 3403 3413 3811 2945 
Q 4219 2478 4219 1663 
Q 4219 847 3811 378 
Q 3403 -91 2694 -91 
Q 2344 -91 2106 36 
Q 1869 163 1728 422 
L 1728 0 
L 147 0 
L 147 378 
L 622 378 
z
M 1728 1497 
Q 1728 916 1876 656 
Q 2025 397 2356 397 
Q 2697 397 2836 672 
Q 2975 947 2975 1663 
Q 2975 2378 2836 2651 
Q 2697 2925 2356 2925 
Q 2025 2925 1876 2665 
Q 1728 2406 1728 1825 
L 1728 1497 
z
" transform="scale(0.015625)"/>
      <path id="DejaVuSerif-Bold-73" d="M 300 97 
L 300 1025 
L 653 1025 
Q 697 653 931 458 
Q 1166 263 1569 263 
Q 1906 263 2086 380 
Q 2266 497 2266 716 
Q 2266 916 2152 1025 
Q 2038 1134 1709 1216 
L 1253 1331 
Q 738 1459 506 1698 
Q 275 1938 275 2344 
Q 275 2884 650 3148 
Q 1025 3413 1806 3413 
Q 2100 3413 2433 3364 
Q 2766 3316 3169 3213 
L 3169 2375 
L 2816 2375 
Q 2788 2716 2573 2887 
Q 2359 3059 1959 3059 
Q 1622 3059 1448 2951 
Q 1275 2844 1275 2638 
Q 1275 2469 1375 2372 
Q 1475 2275 1734 2209 
L 2188 2094 
Q 2841 1928 3091 1684 
Q 3341 1441 3341 1006 
Q 3341 444 2939 176 
Q 2538 -91 1691 -91 
Q 1381 -91 1034 -44 
Q 688 3 300 97 
z
" transform="scale(0.015625)"/>
      <path id="DejaVuSerif-Bold-69" d="M 588 4263 
Q 588 4516 763 4689 
Q 938 4863 1191 4863 
Q 1438 4863 1611 4689 
Q 1784 4516 1784 4263 
Q 1784 4016 1611 3842 
Q 1438 3669 1191 3669 
Q 938 3669 763 3841 
Q 588 4013 588 4263 
z
M 1797 378 
L 2272 378 
L 2272 0 
L 219 0 
L 219 378 
L 691 378 
L 691 2944 
L 219 2944 
L 219 3322 
L 1797 3322 
L 1797 378 
z
" transform="scale(0.015625)"/>
      <path id="DejaVuSerif-Bold-64" d="M 2747 1497 
L 2747 1825 
Q 2747 2406 2597 2665 
Q 2447 2925 2119 2925 
Q 1775 2925 1636 2651 
Q 1497 2378 1497 1663 
Q 1497 947 1637 672 
Q 1778 397 2119 397 
Q 2447 397 2597 656 
Q 2747 916 2747 1497 
z
M 3853 378 
L 4325 378 
L 4325 0 
L 2747 0 
L 2747 422 
Q 2606 163 2367 36 
Q 2128 -91 1778 -91 
Q 1072 -91 667 378 
Q 263 847 263 1663 
Q 263 2481 667 2947 
Q 1072 3413 1778 3413 
Q 2128 3413 2367 3286 
Q 2606 3159 2747 2900 
L 2747 4488 
L 2272 4488 
L 2272 4863 
L 3853 4863 
L 3853 378 
z
" transform="scale(0.015625)"/>
      <path id="DejaVuSerif-Bold-79" d="M 1997 -750 
Q 1847 -1116 1634 -1269 
Q 1422 -1422 1063 -1422 
Q 909 -1422 721 -1387 
Q 534 -1353 313 -1288 
L 313 -594 
L 666 -597 
Q 675 -838 779 -953 
Q 884 -1069 1094 -1069 
Q 1297 -1069 1422 -958 
Q 1547 -847 1672 -538 
L 1722 -422 
L 275 2944 
L -84 2944 
L -84 3322 
L 1831 3322 
L 1831 2944 
L 1434 2944 
L 2278 978 
L 3066 2944 
L 2625 2944 
L 2625 3322 
L 3872 3322 
L 3872 2944 
L 3469 2944 
L 1997 -750 
z
" transform="scale(0.015625)"/>
      <path id="DejaVuSerif-Bold-20" transform="scale(0.015625)"/>
      <path id="DejaVuSerif-Bold-52" d="M 3397 2278 
Q 3675 2238 3865 2094 
Q 4056 1950 4197 1678 
L 4878 378 
L 5356 378 
L 5356 0 
L 3822 0 
L 3078 1409 
Q 2863 1847 2711 1967 
Q 2559 2088 2291 2088 
L 2100 2088 
L 2100 378 
L 2700 378 
L 2700 0 
L 300 0 
L 300 378 
L 897 378 
L 897 4288 
L 300 4288 
L 300 4666 
L 2963 4666 
Q 3775 4666 4217 4339 
Q 4659 4013 4659 3413 
Q 4659 2925 4345 2642 
Q 4031 2359 3397 2278 
z
M 2100 2463 
L 2509 2463 
Q 2947 2463 3183 2700 
Q 3419 2938 3419 3378 
Q 3419 3819 3183 4053 
Q 2947 4288 2509 4288 
L 2100 4288 
L 2100 2463 
z
" transform="scale(0.015625)"/>
      <path id="DejaVuSerif-Bold-6c" d="M 1797 378 
L 2272 378 
L 2272 0 
L 219 0 
L 219 378 
L 691 378 
L 691 4488 
L 219 4488 
L 219 4863 
L 1797 4863 
L 1797 378 
z
" transform="scale(0.015625)"/>
      <path id="DejaVuSerif-Bold-6f" d="M 2138 263 
Q 2488 263 2630 563 
Q 2772 863 2772 1663 
Q 2772 2463 2631 2761 
Q 2491 3059 2138 3059 
Q 1784 3059 1640 2757 
Q 1497 2456 1497 1663 
Q 1497 869 1640 566 
Q 1784 263 2138 263 
z
M 2138 -91 
Q 1259 -91 761 376 
Q 263 844 263 1663 
Q 263 2484 761 2948 
Q 1259 3413 2138 3413 
Q 3019 3413 3516 2948 
Q 4013 2484 4013 1663 
Q 4013 844 3514 376 
Q 3016 -91 2138 -91 
z
" transform="scale(0.015625)"/>
      <path id="DejaVuSerif-Bold-68" d="M 219 0 
L 219 378 
L 691 378 
L 691 4488 
L 197 4488 
L 197 4863 
L 1797 4863 
L 1797 2853 
Q 1997 3150 2253 3281 
Q 2509 3413 2900 3413 
Q 3459 3413 3745 3083 
Q 4031 2753 4031 2113 
L 4031 378 
L 4506 378 
L 4506 0 
L 2522 0 
L 2522 378 
L 2925 378 
L 2925 2144 
Q 2925 2566 2817 2730 
Q 2709 2894 2444 2894 
Q 2109 2894 1953 2648 
Q 1797 2403 1797 1869 
L 1797 378 
L 2203 378 
L 2203 0 
L 219 0 
z
" transform="scale(0.015625)"/>
      <path id="DejaVuSerif-Bold-70" d="M 1728 1825 
L 1728 1497 
Q 1728 916 1876 656 
Q 2025 397 2356 397 
Q 2697 397 2836 672 
Q 2975 947 2975 1663 
Q 2975 2378 2836 2651 
Q 2697 2925 2356 2925 
Q 2025 2925 1876 2665 
Q 1728 2406 1728 1825 
z
M 622 2944 
L 147 2944 
L 147 3322 
L 1728 3322 
L 1728 2900 
Q 1869 3159 2106 3286 
Q 2344 3413 2694 3413 
Q 3403 3413 3811 2945 
Q 4219 2478 4219 1663 
Q 4219 847 3811 378 
Q 3403 -91 2694 -91 
Q 2344 -91 2106 36 
Q 1869 163 1728 422 
L 1728 -953 
L 2241 -953 
L 2241 -1331 
L 147 -1331 
L 147 -953 
L 622 -953 
L 622 2944 
z
" transform="scale(0.015625)"/>
     </defs>
     <use xlink:href="#DejaVuSerif-Bold-50"/>
     <use xlink:href="#DejaVuSerif-Bold-61" transform="translate(72.570312 0)"/>
     <use xlink:href="#DejaVuSerif-Bold-72" transform="translate(137.365234 0)"/>
     <use xlink:href="#DejaVuSerif-Bold-65" transform="translate(190.050781 0)"/>
     <use xlink:href="#DejaVuSerif-Bold-6e" transform="translate(253.673828 0)"/>
     <use xlink:href="#DejaVuSerif-Bold-74" transform="translate(326.378906 0)"/>
     <use xlink:href="#DejaVuSerif-Bold-2013" transform="translate(372.570312 0)"/>
     <use xlink:href="#DejaVuSerif-Bold-53" transform="translate(422.570312 0)"/>
     <use xlink:href="#DejaVuSerif-Bold-75" transform="translate(494.787109 0)"/>
     <use xlink:href="#DejaVuSerif-Bold-62" transform="translate(567.492188 0)"/>
     <use xlink:href="#DejaVuSerif-Bold-73" transform="translate(637.414062 0)"/>
     <use xlink:href="#DejaVuSerif-Bold-69" transform="translate(693.712891 0)"/>
     <use xlink:href="#DejaVuSerif-Bold-64" transform="translate(731.701172 0)"/>
     <use xlink:href="#DejaVuSerif-Bold-69" transform="translate(801.623047 0)"/>
     <use xlink:href="#DejaVuSerif-Bold-61" transform="translate(839.611328 0)"/>
     <use xlink:href="#DejaVuSerif-Bold-72" transform="translate(904.40625 0)"/>
     <use xlink:href="#DejaVuSerif-Bold-79" transform="translate(957.091797 0)"/>
     <use xlink:href="#DejaVuSerif-Bold-20" transform="translate(1015.197266 0)"/>
     <use xlink:href="#DejaVuSerif-Bold-52" transform="translate(1050.011719 0)"/>
     <use xlink:href="#DejaVuSerif-Bold-65" transform="translate(1133.117188 0)"/>
     <use xlink:href="#DejaVuSerif-Bold-6c" transform="translate(1196.740234 0)"/>
     <use xlink:href="#DejaVuSerif-Bold-61" transform="translate(1234.728516 0)"/>
     <use xlink:href="#DejaVuSerif-Bold-74" transform="translate(1299.523438 0)"/>
     <use xlink:href="#DejaVuSerif-Bold-69" transform="translate(1345.714844 0)"/>
     <use xlink:href="#DejaVuSerif-Bold-6f" transform="translate(1383.703125 0)"/>
     <use xlink:href="#DejaVuSerif-Bold-6e" transform="translate(1450.402344 0)"/>
     <use xlink:href="#DejaVuSerif-Bold-73" transform="translate(1523.107422 0)"/>
     <use xlink:href="#DejaVuSerif-Bold-68" transform="translate(1579.40625 0)"/>
     <use xlink:href="#DejaVuSerif-Bold-69" transform="translate(1652.111328 0)"/>
     <use xlink:href="#DejaVuSerif-Bold-70" transform="translate(1690.099609 0)"/>
    </g>
   </g>
   <g id="text_2">
    <!-- Hospital (Parent) -->
    <g style="fill: #ffffff" transform="translate(169.635625 178.984588) scale(0.13 -0.13)">
     <defs>
      <path id="DejaVuSerif-Bold-48" d="M 300 0 
L 300 378 
L 897 378 
L 897 4288 
L 300 4288 
L 300 4666 
L 2700 4666 
L 2700 4288 
L 2100 4288 
L 2100 2719 
L 3956 2719 
L 3956 4288 
L 3359 4288 
L 3359 4666 
L 5759 4666 
L 5759 4288 
L 5159 4288 
L 5159 378 
L 5759 378 
L 5759 0 
L 3359 0 
L 3359 378 
L 3956 378 
L 3956 2291 
L 2100 2291 
L 2100 378 
L 2700 378 
L 2700 0 
L 300 0 
z
" transform="scale(0.015625)"/>
      <path id="DejaVuSerif-Bold-28" d="M 2694 -997 
Q 1641 -606 1122 122 
Q 603 850 603 1931 
Q 603 3013 1115 3731 
Q 1628 4450 2694 4863 
L 2694 4488 
Q 2200 4188 1983 3598 
Q 1766 3009 1766 1931 
Q 1766 856 1983 267 
Q 2200 -322 2694 -622 
L 2694 -997 
z
" transform="scale(0.015625)"/>
      <path id="DejaVuSerif-Bold-29" d="M 325 -997 
L 325 -622 
Q 819 -322 1036 267 
Q 1253 856 1253 1931 
Q 1253 3009 1036 3598 
Q 819 4188 325 4488 
L 325 4863 
Q 1391 4450 1905 3731 
Q 2419 3013 2419 1931 
Q 2419 850 1898 122 
Q 1378 -606 325 -997 
z
" transform="scale(0.015625)"/>
     </defs>
     <use xlink:href="#DejaVuSerif-Bold-48"/>
     <use xlink:href="#DejaVuSerif-Bold-6f" transform="translate(94.482422 0)"/>
     <use xlink:href="#DejaVuSerif-Bold-73" transform="translate(161.181641 0)"/>
     <use xlink:href="#DejaVuSerif-Bold-70" transform="translate(217.480469 0)"/>
     <use xlink:href="#DejaVuSerif-Bold-69" transform="translate(287.402344 0)"/>
     <use xlink:href="#DejaVuSerif-Bold-74" transform="translate(325.390625 0)"/>
     <use xlink:href="#DejaVuSerif-Bold-61" transform="translate(371.582031 0)"/>
     <use xlink:href="#DejaVuSerif-Bold-6c" transform="translate(436.376953 0)"/>
     <use xlink:href="#DejaVuSerif-Bold-20" transform="translate(474.365234 0)"/>
     <use xlink:href="#DejaVuSerif-Bold-28" transform="translate(509.179688 0)"/>
     <use xlink:href="#DejaVuSerif-Bold-50" transform="translate(556.494141 0)"/>
     <use xlink:href="#DejaVuSerif-Bold-61" transform="translate(629.064453 0)"/>
     <use xlink:href="#DejaVuSerif-Bold-72" transform="translate(693.859375 0)"/>
     <use xlink:href="#DejaVuSerif-Bold-65" transform="translate(746.544922 0)"/>
     <use xlink:href="#DejaVuSerif-Bold-6e" transform="translate(810.167969 0)"/>
     <use xlink:href="#DejaVuSerif-Bold-74" transform="translate(882.873047 0)"/>
     <use xlink:href="#DejaVuSerif-Bold-29" transform="translate(929.064453 0)"/>
    </g>
   </g>
   <g id="text_3">
    <!-- VC -->
    <g style="fill: #ffffff" transform="translate(222.882813 338.877287) scale(0.13 -0.13)">
     <defs>
      <path id="DejaVuSerif-Bold-56" d="M 5056 4666 
L 5056 4288 
L 4666 4288 
L 2906 0 
L 2163 0 
L 403 4288 
L -38 4288 
L -38 4666 
L 2150 4666 
L 2150 4288 
L 1697 4288 
L 2956 1197 
L 4225 4288 
L 3669 4288 
L 3669 4666 
L 5056 4666 
z
" transform="scale(0.015625)"/>
      <path id="DejaVuSerif-Bold-43" d="M 4769 1331 
Q 4584 609 4106 259 
Q 3628 -91 2822 -91 
Q 1641 -91 955 561 
Q 269 1213 269 2328 
Q 269 3447 955 4098 
Q 1641 4750 2822 4750 
Q 3238 4750 3688 4650 
Q 4138 4550 4641 4347 
L 4641 3200 
L 4244 3200 
Q 4122 3788 3800 4080 
Q 3478 4372 2950 4372 
Q 2269 4372 1937 3870 
Q 1606 3369 1606 2328 
Q 1606 1288 1937 788 
Q 2269 288 2956 288 
Q 3422 288 3717 547 
Q 4013 806 4147 1331 
L 4769 1331 
z
" transform="scale(0.015625)"/>
     </defs>
     <use xlink:href="#DejaVuSerif-Bold-56"/>
     <use xlink:href="#DejaVuSerif-Bold-43" transform="translate(77.587891 0)"/>
    </g>
   </g>
   <g id="text_4">
    <g id="patch_5">
     <path d="M 256.319109 239.657309 
L 291.204891 239.657309 
L 291.204891 227.423091 
L 256.319109 227.423091 
z
" style="fill: #ffffff; opacity: 0.85"/>
    </g>
    <!-- parent -->
    <g style="fill: #444444" transform="translate(257.839109 236.161606) scale(0.095 -0.095)">
     <defs>
      <path id="DejaVuSerif-Italic-70" d="M 1466 1825 
L 1400 1497 
Q 1353 1250 1353 1053 
Q 1353 769 1453 581 
Q 1622 269 2059 269 
Q 2500 269 2795 622 
Q 3091 975 3225 1663 
Q 3284 1978 3284 2225 
Q 3284 2513 3200 2703 
Q 3041 3053 2600 3053 
Q 2163 3053 1872 2737 
Q 1581 2422 1466 1825 
z
M 1116 2988 
L 563 2988 
L 628 3322 
L 1756 3322 
L 1656 2803 
Q 1884 3116 2175 3264 
Q 2466 3413 2850 3413 
Q 3463 3413 3753 2928 
Q 3947 2609 3947 2163 
Q 3947 1928 3897 1663 
Q 3744 881 3262 395 
Q 2781 -91 2169 -91 
Q 1784 -91 1551 57 
Q 1319 206 1213 519 
L 850 -1331 
L 275 -1331 
L 1116 2988 
z
" transform="scale(0.015625)"/>
      <path id="DejaVuSerif-Italic-61" d="M 2325 519 
Q 1909 -91 1238 -91 
Q 688 -91 409 281 
Q 216 544 216 919 
Q 216 1078 250 1256 
Q 463 2359 1231 2928 
Q 1884 3413 2675 3413 
Q 3206 3413 3388 3322 
L 2806 331 
L 3300 331 
L 3238 0 
L 2225 0 
L 2325 519 
z
M 822 938 
Q 822 269 1469 269 
Q 1863 269 2130 583 
Q 2397 897 2516 1497 
L 2806 3003 
L 2806 3003 
Q 2806 3094 2556 3094 
Q 1956 3094 1491 2625 
Q 1028 2153 863 1297 
Q 822 1097 822 938 
z
" transform="scale(0.015625)"/>
      <path id="DejaVuSerif-Italic-72" d="M 3375 3328 
L 3213 2497 
L 2881 2497 
Q 2891 2559 2891 2613 
Q 2891 2775 2816 2866 
Q 2719 2988 2484 2988 
Q 2059 2988 1775 2694 
Q 1491 2400 1384 1850 
L 1025 0 
L 450 0 
L 1031 2994 
L 481 2994 
L 544 3322 
L 1669 3322 
L 1556 2731 
Q 1791 3078 2089 3245 
Q 2388 3413 2769 3413 
Q 2909 3413 3059 3391 
Q 3209 3369 3375 3328 
z
" transform="scale(0.015625)"/>
      <path id="DejaVuSerif-Italic-65" d="M 938 1275 
Q 925 1156 925 1050 
Q 925 756 1031 563 
Q 1216 219 1709 219 
Q 2072 219 2250 328 
Q 2569 525 2644 778 
L 3066 778 
Q 2941 381 2475 103 
Q 2150 -91 1506 -91 
Q 863 -91 516 388 
Q 272 722 272 1206 
Q 272 1419 319 1659 
Q 472 2450 1000 2931 
Q 1528 3413 2278 3413 
Q 3500 3413 3500 2547 
Q 3500 1913 2859 1603 
Q 2206 1288 938 1275 
z
M 2541 1975 
Q 2891 2181 2891 2569 
Q 2891 3103 2181 3103 
Q 1763 3103 1472 2784 
Q 1181 2466 1003 1606 
Q 2006 1653 2541 1975 
z
" transform="scale(0.015625)"/>
      <path id="DejaVuSerif-Italic-6e" d="M 450 0 
L 1031 2988 
L 481 2988 
L 544 3322 
L 1669 3322 
L 1556 2731 
Q 1781 3069 2068 3241 
Q 2356 3413 2694 3413 
Q 3244 3413 3444 3097 
Q 3563 2906 3563 2588 
Q 3563 2378 3509 2113 
L 3163 331 
L 3675 331 
L 3613 0 
L 2522 0 
L 2897 1931 
Q 2959 2253 2959 2469 
Q 2959 2659 2909 2769 
Q 2803 2994 2425 2994 
Q 2025 2994 1759 2701 
Q 1494 2409 1384 1850 
L 1025 0 
L 450 0 
z
" transform="scale(0.015625)"/>
      <path id="DejaVuSerif-Italic-74" d="M 856 2988 
L 350 2988 
L 416 3322 
L 922 3322 
L 1122 4353 
L 1700 4353 
L 1500 3322 
L 2581 3322 
L 2516 2988 
L 1434 2988 
L 1025 878 
Q 978 631 978 488 
Q 978 388 1000 338 
Q 1059 219 1278 219 
Q 1503 219 1633 351 
Q 1763 484 1825 781 
L 2259 781 
Q 2147 328 1884 118 
Q 1622 -91 1169 -91 
Q 672 -91 506 131 
Q 406 266 406 516 
Q 406 675 447 878 
L 856 2988 
z
" transform="scale(0.015625)"/>
     </defs>
     <use xlink:href="#DejaVuSerif-Italic-70"/>
     <use xlink:href="#DejaVuSerif-Italic-61" transform="translate(64.013672 0)"/>
     <use xlink:href="#DejaVuSerif-Italic-72" transform="translate(123.632812 0)"/>
     <use xlink:href="#DejaVuSerif-Italic-65" transform="translate(171.435547 0)"/>
     <use xlink:href="#DejaVuSerif-Italic-6e" transform="translate(230.615234 0)"/>
     <use xlink:href="#DejaVuSerif-Italic-74" transform="translate(295.019531 0)"/>
    </g>
   </g>
   <g id="text_5">
    <g id="patch_6">
     <path d="M 256.437727 283.331948 
L 309.158273 283.331948 
L 309.158273 270.962652 
L 256.437727 270.962652 
z
" style="fill: #ffffff; opacity: 0.85"/>
    </g>
    <!-- subsidiary -->
    <g style="fill: #444444" transform="translate(257.957727 279.701167) scale(0.095 -0.095)">
     <defs>
      <path id="DejaVuSerif-Italic-73" d="M 222 959 
L 553 959 
Q 541 869 541 788 
Q 541 219 1313 219 
Q 2088 219 2200 788 
Q 2209 844 2209 944 
Q 2209 1041 2103 1158 
Q 1997 1275 1550 1428 
L 1159 1569 
Q 759 1706 629 1882 
Q 500 2059 500 2263 
Q 500 2344 516 2438 
Q 606 2894 990 3153 
Q 1375 3413 1931 3413 
Q 2484 3413 3066 3144 
L 2925 2419 
L 2594 2419 
Q 2606 2491 2606 2553 
Q 2606 2781 2448 2942 
Q 2291 3103 1925 3103 
Q 1191 3103 1091 2591 
Q 1078 2538 1078 2444 
Q 1078 2347 1179 2237 
Q 1281 2128 1678 1997 
L 2106 1856 
Q 2550 1709 2716 1488 
Q 2831 1331 2831 1178 
Q 2831 522 2306 181 
Q 1894 -91 1262 -91 
Q 631 -91 72 184 
L 222 959 
z
" transform="scale(0.015625)"/>
      <path id="DejaVuSerif-Italic-75" d="M 3097 3322 
L 3672 3322 
L 3091 331 
L 3634 331 
L 3572 0 
L 2453 0 
L 2566 588 
Q 2341 256 2055 82 
Q 1769 -91 1434 -91 
Q 881 -91 681 225 
Q 559 413 559 734 
Q 559 944 613 1209 
L 956 2988 
L 438 2988 
L 503 3322 
L 1600 3322 
L 1225 1388 
Q 1163 1066 1163 853 
Q 1163 663 1213 556 
Q 1316 331 1697 331 
Q 2097 331 2364 625 
Q 2631 919 2738 1478 
L 3097 3322 
z
" transform="scale(0.015625)"/>
      <path id="DejaVuSerif-Italic-62" d="M 1153 4531 
L 600 4531 
L 666 4863 
L 1794 4863 
L 1394 2803 
Q 1622 3116 1912 3264 
Q 2203 3413 2588 3413 
Q 3200 3413 3494 2928 
Q 3688 2609 3688 2163 
Q 3688 1928 3634 1663 
Q 3481 881 3000 395 
Q 2519 -91 1906 -91 
Q 1522 -91 1289 57 
Q 1056 206 950 519 
L 850 0 
L 275 0 
L 1153 4531 
z
M 1141 1497 
Q 1091 1250 1091 1053 
Q 1091 769 1191 581 
Q 1359 269 1797 269 
Q 2238 269 2533 622 
Q 2828 975 2963 1663 
Q 3025 1978 3025 2225 
Q 3025 2513 2938 2703 
Q 2781 3053 2338 3053 
Q 1900 3053 1609 2737 
Q 1319 2422 1203 1825 
L 1141 1497 
z
" transform="scale(0.015625)"/>
      <path id="DejaVuSerif-Italic-69" d="M 1009 4353 
Q 1038 4497 1163 4603 
Q 1288 4709 1434 4709 
Q 1578 4709 1663 4603 
Q 1728 4522 1728 4422 
Q 1728 4388 1719 4353 
Q 1691 4206 1567 4103 
Q 1444 4000 1297 4000 
Q 1150 4000 1066 4103 
Q 1003 4181 1003 4281 
Q 1003 4316 1009 4353 
z
M 963 331 
L 1506 331 
L 1444 0 
L 325 0 
L 903 2988 
L 353 2988 
L 419 3322 
L 1544 3322 
L 963 331 
z
" transform="scale(0.015625)"/>
      <path id="DejaVuSerif-Italic-64" d="M 3841 4863 
L 2897 0 
L 2322 0 
L 2422 519 
Q 2191 206 1902 57 
Q 1613 -91 1228 -91 
Q 616 -91 322 394 
Q 125 716 125 1166 
Q 125 1397 178 1663 
Q 331 2444 812 2928 
Q 1294 3413 1909 3413 
Q 2294 3413 2525 3264 
Q 2756 3116 2866 2803 
L 3200 4531 
L 2656 4531 
L 2722 4863 
L 3841 4863 
z
M 2613 1497 
L 2675 1825 
Q 2722 2069 2722 2266 
Q 2722 2550 2622 2738 
Q 2456 3053 2019 3053 
Q 1575 3053 1279 2703 
Q 984 2353 850 1663 
Q 788 1347 788 1103 
Q 788 813 875 622 
Q 1031 269 1475 269 
Q 1913 269 2203 583 
Q 2494 897 2613 1497 
z
" transform="scale(0.015625)"/>
      <path id="DejaVuSerif-Italic-79" d="M 3681 3294 
Q 3372 1506 2828 563 
Q 2031 -822 1391 -1238 
Q 1106 -1422 356 -1422 
Q 209 -1422 60 -1397 
Q -88 -1372 -238 -1325 
L -113 -691 
L 181 -691 
Q 175 -741 175 -788 
Q 175 -919 231 -994 
Q 309 -1100 513 -1100 
Q 1063 -1100 1541 -622 
L 756 2988 
L 378 2988 
L 444 3322 
L 1303 3322 
L 2041 25 
Q 2544 778 2666 1088 
Q 3059 2059 3138 2959 
L 2759 2959 
L 2825 3294 
L 3681 3294 
z
" transform="scale(0.015625)"/>
     </defs>
     <use xlink:href="#DejaVuSerif-Italic-73"/>
     <use xlink:href="#DejaVuSerif-Italic-75" transform="translate(51.318359 0)"/>
     <use xlink:href="#DejaVuSerif-Italic-62" transform="translate(115.722656 0)"/>
     <use xlink:href="#DejaVuSerif-Italic-73" transform="translate(179.736328 0)"/>
     <use xlink:href="#DejaVuSerif-Italic-69" transform="translate(231.054688 0)"/>
     <use xlink:href="#DejaVuSerif-Italic-64" transform="translate(263.037109 0)"/>
     <use xlink:href="#DejaVuSerif-Italic-69" transform="translate(327.050781 0)"/>
     <use xlink:href="#DejaVuSerif-Italic-61" transform="translate(359.033203 0)"/>
     <use xlink:href="#DejaVuSerif-Italic-72" transform="translate(418.652344 0)"/>
     <use xlink:href="#DejaVuSerif-Italic-79" transform="translate(466.455078 0)"/>
    </g>
   </g>
  </g>
  <g id="axes_2">
   <g id="patch_7">
    <path d="M 616.1832 188.116137 
Q 606.2436 249.892862 596.659205 309.461912 
" style="fill: none; stroke: #444444; stroke-width: 2; stroke-linecap: round"/>
    <path d="M 601.879235 302.198904 
L 596.659205 309.461912 
L 593.980816 300.928084 
z
" style="fill: #444444; stroke: #444444; stroke-width: 2; stroke-linecap: round"/>
   </g>
   <g id="patch_8">
    <path d="M 775.2168 188.116137 
Q 785.1564 249.892862 794.740795 309.461912 
" style="fill: none; stroke: #444444; stroke-width: 2; stroke-linecap: round"/>
    <path d="M 797.419184 300.928084 
L 794.740795 309.461912 
L 789.520765 302.198904 
z
" style="fill: #444444; stroke: #444444; stroke-width: 2; stroke-linecap: round"/>
   </g>
   <g id="line2d_1">
    <path d="M 632.448 335.2901 
L 758.952 335.2901 
" clip-path="url(#p766f19a2ef)" style="fill: none; stroke-dasharray: 7.4,3.2; stroke-dashoffset: 0; stroke: #c0392b; stroke-width: 2"/>
   </g>
   <g id="patch_9">
    <path d="M 623.412 197.20095 
L 767.988 197.20095 
Q 779.283 197.20095 779.283 188.116137 
L 779.283 140.875112 
Q 779.283 131.7903 767.988 131.7903 
L 623.412 131.7903 
Q 612.117 131.7903 612.117 140.875112 
L 612.117 188.116137 
Q 612.117 197.20095 623.412 197.20095 
z
" clip-path="url(#p766f19a2ef)" style="fill: #2c3e50; opacity: 0.95"/>
   </g>
   <g id="patch_10">
    <path d="M 487.872 367.995425 
L 632.448 367.995425 
Q 643.743 367.995425 643.743 358.910612 
L 643.743 311.669587 
Q 643.743 302.584775 632.448 302.584775 
L 487.872 302.584775 
Q 476.577 302.584775 476.577 311.669587 
L 476.577 358.910612 
Q 476.577 367.995425 487.872 367.995425 
z
" clip-path="url(#p766f19a2ef)" style="fill: #2980b9; opacity: 0.95"/>
   </g>
   <g id="patch_11">
    <path d="M 758.952 367.995425 
L 903.528 367.995425 
Q 914.823 367.995425 914.823 358.910612 
L 914.823 311.669587 
Q 914.823 302.584775 903.528 302.584775 
L 758.952 302.584775 
Q 747.657 302.584775 747.657 311.669587 
L 747.657 358.910612 
Q 747.657 367.995425 758.952 367.995425 
z
" clip-path="url(#p766f19a2ef)" style="fill: #2c3e50; opacity: 0.95"/>
   </g>
   <g id="text_6">
    <!-- Sister Relationship -->
    <g style="fill: #2c3e50" transform="translate(636.640313 59.6475) scale(0.11 -0.11)">
     <use xlink:href="#DejaVuSerif-Bold-53"/>
     <use xlink:href="#DejaVuSerif-Bold-69" transform="translate(72.216797 0)"/>
     <use xlink:href="#DejaVuSerif-Bold-73" transform="translate(110.205078 0)"/>
     <use xlink:href="#DejaVuSerif-Bold-74" transform="translate(166.503906 0)"/>
     <use xlink:href="#DejaVuSerif-Bold-65" transform="translate(212.695312 0)"/>
     <use xlink:href="#DejaVuSerif-Bold-72" transform="translate(276.318359 0)"/>
     <use xlink:href="#DejaVuSerif-Bold-20" transform="translate(329.003906 0)"/>
     <use xlink:href="#DejaVuSerif-Bold-52" transform="translate(363.818359 0)"/>
     <use xlink:href="#DejaVuSerif-Bold-65" transform="translate(446.923828 0)"/>
     <use xlink:href="#DejaVuSerif-Bold-6c" transform="translate(510.546875 0)"/>
     <use xlink:href="#DejaVuSerif-Bold-61" transform="translate(548.535156 0)"/>
     <use xlink:href="#DejaVuSerif-Bold-74" transform="translate(613.330078 0)"/>
     <use xlink:href="#DejaVuSerif-Bold-69" transform="translate(659.521484 0)"/>
     <use xlink:href="#DejaVuSerif-Bold-6f" transform="translate(697.509766 0)"/>
     <use xlink:href="#DejaVuSerif-Bold-6e" transform="translate(764.208984 0)"/>
     <use xlink:href="#DejaVuSerif-Bold-73" transform="translate(836.914062 0)"/>
     <use xlink:href="#DejaVuSerif-Bold-68" transform="translate(893.212891 0)"/>
     <use xlink:href="#DejaVuSerif-Bold-69" transform="translate(965.917969 0)"/>
     <use xlink:href="#DejaVuSerif-Bold-70" transform="translate(1003.90625 0)"/>
    </g>
   </g>
   <g id="text_7">
    <!-- Hospital (Parent) -->
    <g style="fill: #ffffff" transform="translate(632.235625 168.082812) scale(0.13 -0.13)">
     <use xlink:href="#DejaVuSerif-Bold-48"/>
     <use xlink:href="#DejaVuSerif-Bold-6f" transform="translate(94.482422 0)"/>
     <use xlink:href="#DejaVuSerif-Bold-73" transform="translate(161.181641 0)"/>
     <use xlink:href="#DejaVuSerif-Bold-70" transform="translate(217.480469 0)"/>
     <use xlink:href="#DejaVuSerif-Bold-69" transform="translate(287.402344 0)"/>
     <use xlink:href="#DejaVuSerif-Bold-74" transform="translate(325.390625 0)"/>
     <use xlink:href="#DejaVuSerif-Bold-61" transform="translate(371.582031 0)"/>
     <use xlink:href="#DejaVuSerif-Bold-6c" transform="translate(436.376953 0)"/>
     <use xlink:href="#DejaVuSerif-Bold-20" transform="translate(474.365234 0)"/>
     <use xlink:href="#DejaVuSerif-Bold-28" transform="translate(509.179688 0)"/>
     <use xlink:href="#DejaVuSerif-Bold-50" transform="translate(556.494141 0)"/>
     <use xlink:href="#DejaVuSerif-Bold-61" transform="translate(629.064453 0)"/>
     <use xlink:href="#DejaVuSerif-Bold-72" transform="translate(693.859375 0)"/>
     <use xlink:href="#DejaVuSerif-Bold-65" transform="translate(746.544922 0)"/>
     <use xlink:href="#DejaVuSerif-Bold-6e" transform="translate(810.167969 0)"/>
     <use xlink:href="#DejaVuSerif-Bold-74" transform="translate(882.873047 0)"/>
     <use xlink:href="#DejaVuSerif-Bold-29" transform="translate(929.064453 0)"/>
    </g>
   </g>
   <g id="text_8">
    <!-- VC -->
    <g style="fill: #ffffff" transform="translate(549.942813 338.877287) scale(0.13 -0.13)">
     <use xlink:href="#DejaVuSerif-Bold-56"/>
     <use xlink:href="#DejaVuSerif-Bold-43" transform="translate(77.587891 0)"/>
    </g>
   </g>
   <g id="text_9">
    <!-- Hospital -->
    <g style="fill: #ffffff" transform="translate(800.406641 338.877287) scale(0.13 -0.13)">
     <use xlink:href="#DejaVuSerif-Bold-48"/>
     <use xlink:href="#DejaVuSerif-Bold-6f" transform="translate(94.482422 0)"/>
     <use xlink:href="#DejaVuSerif-Bold-73" transform="translate(161.181641 0)"/>
     <use xlink:href="#DejaVuSerif-Bold-70" transform="translate(217.480469 0)"/>
     <use xlink:href="#DejaVuSerif-Bold-69" transform="translate(287.402344 0)"/>
     <use xlink:href="#DejaVuSerif-Bold-74" transform="translate(325.390625 0)"/>
     <use xlink:href="#DejaVuSerif-Bold-61" transform="translate(371.582031 0)"/>
     <use xlink:href="#DejaVuSerif-Bold-6c" transform="translate(436.376953 0)"/>
    </g>
   </g>
   <g id="text_10">
    <g id="patch_12">
     <path d="M 580.903216 208.42114 
L 574.136981 260.70569 
L 586.403984 262.293185 
L 593.170219 210.008635 
z
" style="fill: #ffffff; opacity: 0.85"/>
    </g>
    <!-- subsidiary -->
    <g style="fill: #444444" transform="translate(584.308892 210.39455) rotate(-262.626234) scale(0.095 -0.095)">
     <use xlink:href="#DejaVuSerif-Italic-73"/>
     <use xlink:href="#DejaVuSerif-Italic-75" transform="translate(51.318359 0)"/>
     <use xlink:href="#DejaVuSerif-Italic-62" transform="translate(115.722656 0)"/>
     <use xlink:href="#DejaVuSerif-Italic-73" transform="translate(179.736328 0)"/>
     <use xlink:href="#DejaVuSerif-Italic-69" transform="translate(231.054688 0)"/>
     <use xlink:href="#DejaVuSerif-Italic-64" transform="translate(263.037109 0)"/>
     <use xlink:href="#DejaVuSerif-Italic-69" transform="translate(327.050781 0)"/>
     <use xlink:href="#DejaVuSerif-Italic-61" transform="translate(359.033203 0)"/>
     <use xlink:href="#DejaVuSerif-Italic-72" transform="translate(418.652344 0)"/>
     <use xlink:href="#DejaVuSerif-Italic-79" transform="translate(466.455078 0)"/>
    </g>
   </g>
   <g id="text_11">
    <g id="patch_13">
     <path d="M 798.229781 210.008635 
L 804.996016 262.293185 
L 817.263019 260.70569 
L 810.496784 208.42114 
z
" style="fill: #ffffff; opacity: 0.85"/>
    </g>
    <!-- subsidiary -->
    <g style="fill: #444444" transform="translate(802.025614 211.050085) rotate(-277.373766) scale(0.095 -0.095)">
     <use xlink:href="#DejaVuSerif-Italic-73"/>
     <use xlink:href="#DejaVuSerif-Italic-75" transform="translate(51.318359 0)"/>
     <use xlink:href="#DejaVuSerif-Italic-62" transform="translate(115.722656 0)"/>
     <use xlink:href="#DejaVuSerif-Italic-73" transform="translate(179.736328 0)"/>
     <use xlink:href="#DejaVuSerif-Italic-69" transform="translate(231.054688 0)"/>
     <use xlink:href="#DejaVuSerif-Italic-64" transform="translate(263.037109 0)"/>
     <use xlink:href="#DejaVuSerif-Italic-69" transform="translate(327.050781 0)"/>
     <use xlink:href="#DejaVuSerif-Italic-61" transform="translate(359.033203 0)"/>
     <use xlink:href="#DejaVuSerif-Italic-72" transform="translate(418.652344 0)"/>
     <use xlink:href="#DejaVuSerif-Italic-79" transform="translate(466.455078 0)"/>
    </g>
   </g>
   <g id="text_12">
    <g id="patch_14">
     <path d="M 680.795391 366.844684 
L 710.604609 366.844684 
L 710.604609 354.610466 
L 680.795391 354.610466 
z
" style="fill: #ffffff; opacity: 0.85"/>
    </g>
    <!-- sister -->
    <g style="fill: #c0392b" transform="translate(682.315391 363.348981) scale(0.095 -0.095)">
     <use xlink:href="#DejaVuSerif-Italic-73"/>
     <use xlink:href="#DejaVuSerif-Italic-69" transform="translate(51.318359 0)"/>
     <use xlink:href="#DejaVuSerif-Italic-73" transform="translate(83.300781 0)"/>
     <use xlink:href="#DejaVuSerif-Italic-74" transform="translate(134.619141 0)"/>
     <use xlink:href="#DejaVuSerif-Italic-65" transform="translate(174.804688 0)"/>
     <use xlink:href="#DejaVuSerif-Italic-72" transform="translate(233.984375 0)"/>
    </g>
   </g>
  </g>
  <g id="text_13">
   <!-- VC–Hospital Relationship Diagrams -->
   <g style="fill: #2c3e50" transform="translate(334.387812 17.077969) scale(0.13 -0.13)">
    <defs>
     <path id="DejaVuSerif-Bold-44" d="M 2100 378 
L 2534 378 
Q 3266 378 3605 847 
Q 3944 1316 3944 2338 
Q 3944 3353 3606 3820 
Q 3269 4288 2534 4288 
L 2100 4288 
L 2100 378 
z
M 300 0 
L 300 378 
L 897 378 
L 897 4288 
L 300 4288 
L 300 4666 
L 2694 4666 
Q 3950 4666 4615 4066 
Q 5281 3466 5281 2338 
Q 5281 1203 4614 601 
Q 3947 0 2694 0 
L 300 0 
z
" transform="scale(0.015625)"/>
     <path id="DejaVuSerif-Bold-67" d="M 3853 2944 
L 3853 44 
Q 3853 -656 3354 -1039 
Q 2856 -1422 1947 -1422 
Q 1616 -1422 1275 -1370 
Q 934 -1319 575 -1216 
L 575 -422 
L 928 -422 
Q 975 -750 1192 -909 
Q 1409 -1069 1813 -1069 
Q 2325 -1069 2536 -823 
Q 2747 -578 2747 44 
L 2747 422 
Q 2606 163 2367 36 
Q 2128 -91 1778 -91 
Q 1072 -91 667 378 
Q 263 847 263 1663 
Q 263 2481 667 2947 
Q 1072 3413 1778 3413 
Q 2128 3413 2367 3286 
Q 2606 3159 2747 2900 
L 2747 3322 
L 4325 3322 
L 4325 2944 
L 3853 2944 
z
M 2747 1825 
Q 2747 2406 2597 2665 
Q 2447 2925 2119 2925 
Q 1775 2925 1636 2651 
Q 1497 2378 1497 1663 
Q 1497 947 1637 672 
Q 1778 397 2119 397 
Q 2447 397 2597 656 
Q 2747 916 2747 1497 
L 2747 1825 
z
" transform="scale(0.015625)"/>
     <path id="DejaVuSerif-Bold-6d" d="M 3884 2778 
Q 4116 3109 4384 3261 
Q 4653 3413 5013 3413 
Q 5584 3413 5867 3089 
Q 6150 2766 6150 2113 
L 6150 378 
L 6625 378 
L 6625 0 
L 4647 0 
L 4647 378 
L 5044 378 
L 5044 1947 
Q 5044 2569 4948 2731 
Q 4853 2894 4594 2894 
Q 4300 2894 4137 2667 
Q 3975 2441 3975 2022 
L 3975 378 
L 4372 378 
L 4372 0 
L 2472 0 
L 2472 378 
L 2869 378 
L 2869 1947 
Q 2869 2569 2772 2731 
Q 2675 2894 2419 2894 
Q 2122 2894 1959 2667 
Q 1797 2441 1797 2022 
L 1797 378 
L 2194 378 
L 2194 0 
L 219 0 
L 219 378 
L 691 378 
L 691 2944 
L 219 2944 
L 219 3322 
L 1797 3322 
L 1797 2853 
Q 1991 3144 2241 3278 
Q 2491 3413 2834 3413 
Q 3241 3413 3494 3258 
Q 3747 3103 3884 2778 
z
" transform="scale(0.015625)"/>
    </defs>
    <use xlink:href="#DejaVuSerif-Bold-56"/>
    <use xlink:href="#DejaVuSerif-Bold-43" transform="translate(77.587891 0)"/>
    <use xlink:href="#DejaVuSerif-Bold-2013" transform="translate(157.177734 0)"/>
    <use xlink:href="#DejaVuSerif-Bold-48" transform="translate(207.177734 0)"/>
    <use xlink:href="#DejaVuSerif-Bold-6f" transform="translate(301.660156 0)"/>
    <use xlink:href="#DejaVuSerif-Bold-73" transform="translate(368.359375 0)"/>
    <use xlink:href="#DejaVuSerif-Bold-70" transform="translate(424.658203 0)"/>
    <use xlink:href="#DejaVuSerif-Bold-69" transform="translate(494.580078 0)"/>
    <use xlink:href="#DejaVuSerif-Bold-74" transform="translate(532.568359 0)"/>
    <use xlink:href="#DejaVuSerif-Bold-61" transform="translate(578.759766 0)"/>
    <use xlink:href="#DejaVuSerif-Bold-6c" transform="translate(643.554688 0)"/>
    <use xlink:href="#DejaVuSerif-Bold-20" transform="translate(681.542969 0)"/>
    <use xlink:href="#DejaVuSerif-Bold-52" transform="translate(716.357422 0)"/>
    <use xlink:href="#DejaVuSerif-Bold-65" transform="translate(799.462891 0)"/>
    <use xlink:href="#DejaVuSerif-Bold-6c" transform="translate(863.085938 0)"/>
    <use xlink:href="#DejaVuSerif-Bold-61" transform="translate(901.074219 0)"/>
    <use xlink:href="#DejaVuSerif-Bold-74" transform="translate(965.869141 0)"/>
    <use xlink:href="#DejaVuSerif-Bold-69" transform="translate(1012.060547 0)"/>
    <use xlink:href="#DejaVuSerif-Bold-6f" transform="translate(1050.048828 0)"/>
    <use xlink:href="#DejaVuSerif-Bold-6e" transform="translate(1116.748047 0)"/>
    <use xlink:href="#DejaVuSerif-Bold-73" transform="translate(1189.453125 0)"/>
    <use xlink:href="#DejaVuSerif-Bold-68" transform="translate(1245.751953 0)"/>
    <use xlink:href="#DejaVuSerif-Bold-69" transform="translate(1318.457031 0)"/>
    <use xlink:href="#DejaVuSerif-Bold-70" transform="translate(1356.445312 0)"/>
    <use xlink:href="#DejaVuSerif-Bold-20" transform="translate(1426.367188 0)"/>
    <use xlink:href="#DejaVuSerif-Bold-44" transform="translate(1461.181641 0)"/>
    <use xlink:href="#DejaVuSerif-Bold-69" transform="translate(1547.900391 0)"/>
    <use xlink:href="#DejaVuSerif-Bold-61" transform="translate(1585.888672 0)"/>
    <use xlink:href="#DejaVuSerif-Bold-67" transform="translate(1650.683594 0)"/>
    <use xlink:href="#DejaVuSerif-Bold-72" transform="translate(1720.605469 0)"/>
    <use xlink:href="#DejaVuSerif-Bold-61" transform="translate(1773.291016 0)"/>
    <use xlink:href="#DejaVuSerif-Bold-6d" transform="translate(1838.085938 0)"/>
    <use xlink:href="#DejaVuSerif-Bold-73" transform="translate(1943.896484 0)"/>
   </g>
  </g>
 </g>
 <defs>
  <clipPath id="p67cbdddf9e">
   <rect x="7.2" y="73.6475" width="451.8" height="363.3925"/>
  </clipPath>
  <clipPath id="p766f19a2ef">
   <rect x="469.8" y="73.6475" width="451.8" height="363.3925"/>
  </clipPath>
 </defs>
</svg>
