<?xml version="1.0" encoding="utf-8" standalone="no"?>
<!DOCTYPE svg PUBLIC "-//W3C//DTD SVG 1.1//EN"
  "http://www.w3.org/Graphics/SVG/1.1/DTD/svg11.dtd">
<svg xmlns:xlink="http://www.w3.org/1999/xlink" width="1353.6pt" height="465.56625pt" viewBox="0 0 1353.6 465.56625" xmlns="http://www.w3.org/2000/svg" version="1.1">
 <metadata>
  <rdf:RDF xmlns:dc="http://purl.org/dc/elements/1.1/" xmlns:cc="http://creativecommons.org/ns#" xmlns:rdf="http://www.w3.org/1999/02/22-rdf-syntax-ns#">
   <cc:Work>
    <dc:type rdf:resource="http://purl.org/dc/dcmitype/StillImage"/>
    <dc:date>2026-02-24T18:00:16.652838</dc:date>
    <dc:format>image/svg+xml</dc:format>
    <dc:creator>
     <cc:Agent>
      <dc:title>Matplotlib v3.10.8, https://matplotlib.org/</dc:title>
     </cc:Agent>
    </dc:creator>
   </cc:Work>
  </rdf:RDF>
 </metadata>
 <defs>
  <style type="text/css">*{stroke-linejoin: round; stroke-linecap: butt}</style>
 </defs>
 <g id="figure_1">
  <g id="patch_1">
   <path d="M 0 465.56625 
L 1353.6 465.56625 
L 1353.6 0 
L 0 0 
z
" style="fill: #ffffff"/>
  </g>
  <g id="axes_1">
   <g id="table_1">
    <g id="patch_2">
     <path d="M 7.2 211.2 
L 105.459177 211.2 
L 105.459177 188.4 
L 7.2 188.4 
z
" style="fill: #2c3e50; stroke: #ffffff; stroke-linejoin: miter"/>
    </g>
    <g id="text_1">
     <!-- Type -->
     <g style="fill: #ffffff" transform="translate(43.575682 202.417187) scale(0.1 -0.1)">
      <defs>
       <path id="DejaVuSerif-Bold-54" d="M 1159 0 
L 1159 378 
L 1778 378 
L 1778 4238 
L 500 4238 
L 500 3500 
L 72 3500 
L 72 4666 
L 4697 4666 
L 4697 3500 
L 4275 3500 
L 4275 4238 
L 2988 4238 
L 2988 378 
L 3609 378 
L 3609 0 
L 1159 0 
z
" transform="scale(0.015625)"/>
       <path id="DejaVuSerif-Bold-79" d="M 1997 -750 
Q 1847 -1116 1634 -1269 
Q 1422 -1422 1063 -1422 
Q 909 -1422 721 -1387 
Q 534 -1353 313 -1288 
L 313 -594 
L 666 -597 
Q 675 -838 779 -953 
Q 884 -1069 1094 -1069 
Q 1297 -1069 1422 -958 
Q 1547 -847 1672 -538 
L 1722 -422 
L 275 2944 
L -84 2944 
L -84 3322 
L 1831 3322 
L 1831 2944 
L 1434 2944 
L 2278 978 
L 3066 2944 
L 2625 2944 
L 2625 3322 
L 3872 3322 
L 3872 2944 
L 3469 2944 
L 1997 -750 
z
" transform="scale(0.015625)"/>
       <path id="DejaVuSerif-Bold-70" d="M 1728 1825 
L 1728 1497 
Q 1728 916 1876 656 
Q 2025 397 2356 397 
Q 2697 397 2836 672 
Q 2975 947 2975 1663 
Q 2975 2378 2836 2651 
Q 2697 2925 2356 2925 
Q 2025 2925 1876 2665 
Q 1728 2406 1728 1825 
z
M 622 2944 
L 147 2944 
L 147 3322 
L 1728 3322 
L 1728 2900 
Q 1869 3159 2106 3286 
Q 2344 3413 2694 3413 
Q 3403 3413 3811 2945 
Q 4219 2478 4219 1663 
Q 4219 847 3811 378 
Q 3403 -91 2694 -91 
Q 2344 -91 2106 36 
Q 1869 163 1728 422 
L 1728 -953 
L 2241 -953 
L 2241 -1331 
L 147 -1331 
L 147 -953 
L 622 -953 
L 622 2944 
z
" transform="scale(0.015625)"/>
       <path id="DejaVuSerif-Bold-65" d="M 2566 1875 
Q 2566 2531 2444 2795 
Q 2322 3059 2028 3059 
Q 1744 3059 1620 2800 
Q 1497 2541 1497 1931 
L 1497 1875 
L 2566 1875 
z
M 3781 1503 
L 1497 1503 
L 1497 1478 
Q 1497 834 1690 548 
Q 1884 263 2316 263 
Q 2675 263 2897 453 
Q 3119 644 3181 1006 
L 3700 1006 
Q 3566 441 3166 175 
Q 2766 -91 2047 -91 
Q 1184 -91 723 364 
Q 263 819 263 1663 
Q 263 2488 734 2950 
Q 1206 3413 2047 3413 
Q 2872 3413 3312 2927 
Q 3753 2441 3781 1503 
z
" transform="scale(0.015625)"/>
      </defs>
      <use xlink:href="#DejaVuSerif-Bold-54"/>
      <use xlink:href="#DejaVuSerif-Bold-79" transform="translate(63.414062 0)"/>
      <use xlink:href="#DejaVuSerif-Bold-70" transform="translate(121.519531 0)"/>
      <use xlink:href="#DejaVuSerif-Bold-65" transform="translate(191.441406 0)"/>
     </g>
    </g>
    <g id="patch_3">
     <path d="M 105.459177 211.2 
L 167.987744 211.2 
L 167.987744 188.4 
L 105.459177 188.4 
z
" style="fill: #2c3e50; stroke: #ffffff; stroke-linejoin: miter"/>
    </g>
    <g id="text_2">
     <!-- Count -->
     <g style="fill: #ffffff" transform="translate(119.828929 202.559375) scale(0.1 -0.1)">
      <defs>
       <path id="DejaVuSerif-Bold-43" d="M 4769 1331 
Q 4584 609 4106 259 
Q 3628 -91 2822 -91 
Q 1641 -91 955 561 
Q 269 1213 269 2328 
Q 269 3447 955 4098 
Q 1641 4750 2822 4750 
Q 3238 4750 3688 4650 
Q 4138 4550 4641 4347 
L 4641 3200 
L 4244 3200 
Q 4122 3788 3800 4080 
Q 3478 4372 2950 4372 
Q 2269 4372 1937 3870 
Q 1606 3369 1606 2328 
Q 1606 1288 1937 788 
Q 2269 288 2956 288 
Q 3422 288 3717 547 
Q 4013 806 4147 1331 
L 4769 1331 
z
" transform="scale(0.015625)"/>
       <path id="DejaVuSerif-Bold-6f" d="M 2138 263 
Q 2488 263 2630 563 
Q 2772 863 2772 1663 
Q 2772 2463 2631 2761 
Q 2491 3059 2138 3059 
Q 1784 3059 1640 2757 
Q 1497 2456 1497 1663 
Q 1497 869 1640 566 
Q 1784 263 2138 263 
z
M 2138 -91 
Q 1259 -91 761 376 
Q 263 844 263 1663 
Q 263 2484 761 2948 
Q 1259 3413 2138 3413 
Q 3019 3413 3516 2948 
Q 4013 2484 4013 1663 
Q 4013 844 3514 376 
Q 3016 -91 2138 -91 
z
" transform="scale(0.015625)"/>
       <path id="DejaVuSerif-Bold-75" d="M 3963 3322 
L 3963 378 
L 4434 378 
L 4434 0 
L 2853 0 
L 2853 469 
Q 2656 172 2400 40 
Q 2144 -91 1753 -91 
Q 1194 -91 908 239 
Q 622 569 622 1209 
L 622 2944 
L 147 2944 
L 147 3322 
L 1728 3322 
L 1728 1381 
Q 1728 763 1831 595 
Q 1934 428 2209 428 
Q 2544 428 2698 675 
Q 2853 922 2853 1459 
L 2853 2944 
L 2450 2944 
L 2450 3322 
L 3963 3322 
z
" transform="scale(0.015625)"/>
       <path id="DejaVuSerif-Bold-6e" d="M 219 0 
L 219 378 
L 691 378 
L 691 2944 
L 219 2944 
L 219 3322 
L 1797 3322 
L 1797 2853 
Q 1997 3150 2253 3281 
Q 2509 3413 2900 3413 
Q 3459 3413 3745 3083 
Q 4031 2753 4031 2113 
L 4031 378 
L 4506 378 
L 4506 0 
L 2522 0 
L 2522 378 
L 2925 378 
L 2925 2144 
Q 2925 2566 2817 2730 
Q 2709 2894 2444 2894 
Q 2109 2894 1953 2648 
Q 1797 2403 1797 1869 
L 1797 378 
L 2203 378 
L 2203 0 
L 219 0 
z
" transform="scale(0.015625)"/>
       <path id="DejaVuSerif-Bold-74" d="M 634 2944 
L 153 2944 
L 153 3322 
L 634 3322 
L 634 4353 
L 1741 4353 
L 1741 3322 
L 2663 3322 
L 2663 2944 
L 1741 2944 
L 1741 909 
Q 1741 475 1809 369 
Q 1878 263 2059 263 
Q 2259 263 2356 397 
Q 2453 531 2459 813 
L 2925 813 
Q 2897 313 2651 111 
Q 2406 -91 1806 -91 
Q 1122 -91 878 123 
Q 634 338 634 909 
L 634 2944 
z
" transform="scale(0.015625)"/>
      </defs>
      <use xlink:href="#DejaVuSerif-Bold-43"/>
      <use xlink:href="#DejaVuSerif-Bold-6f" transform="translate(79.589844 0)"/>
      <use xlink:href="#DejaVuSerif-Bold-75" transform="translate(146.289062 0)"/>
      <use xlink:href="#DejaVuSerif-Bold-6e" transform="translate(218.994141 0)"/>
      <use xlink:href="#DejaVuSerif-Bold-74" transform="translate(291.699219 0)"/>
     </g>
    </g>
    <g id="patch_4">
     <path d="M 167.987744 211.2 
L 230.516311 211.2 
L 230.516311 188.4 
L 167.987744 188.4 
z
" style="fill: #2c3e50; stroke: #ffffff; stroke-linejoin: miter"/>
    </g>
    <g id="text_3">
     <!-- % -->
     <g style="fill: #ffffff" transform="translate(194.501246 202.559375) scale(0.1 -0.1)">
      <defs>
       <path id="DejaVuSerif-Bold-25" d="M 1381 4434 
Q 1181 4434 1093 4217 
Q 1006 4000 1006 3481 
Q 1006 2959 1093 2740 
Q 1181 2522 1381 2522 
Q 1584 2522 1671 2740 
Q 1759 2959 1759 3481 
Q 1759 4000 1671 4217 
Q 1584 4434 1381 4434 
z
M 1381 4750 
Q 1978 4750 2295 4423 
Q 2613 4097 2613 3481 
Q 2613 2866 2295 2537 
Q 1978 2209 1381 2209 
Q 788 2209 470 2537 
Q 153 2866 153 3481 
Q 153 4097 470 4423 
Q 788 4750 1381 4750 
z
M 4231 4750 
L 4769 4750 
L 1850 -91 
L 1313 -91 
L 4231 4750 
z
M 4697 2450 
Q 5294 2450 5609 2123 
Q 5925 1797 5925 1184 
Q 5925 569 5609 239 
Q 5294 -91 4697 -91 
Q 4103 -91 3786 239 
Q 3469 569 3469 1184 
Q 3469 1797 3786 2123 
Q 4103 2450 4697 2450 
z
M 4697 2138 
Q 4494 2138 4406 1920 
Q 4319 1703 4319 1184 
Q 4319 663 4408 444 
Q 4497 225 4697 225 
Q 4900 225 4987 444 
Q 5075 663 5075 1184 
Q 5075 1703 4987 1920 
Q 4900 2138 4697 2138 
z
" transform="scale(0.015625)"/>
      </defs>
      <use xlink:href="#DejaVuSerif-Bold-25"/>
     </g>
    </g>
    <g id="patch_5">
     <path d="M 7.2 234 
L 105.459177 234 
L 105.459177 211.2 
L 7.2 211.2 
z
" style="fill: #2c3e50; fill-opacity: 0.2; stroke: #cccccc; stroke-linejoin: miter"/>
    </g>
    <g id="text_4">
     <!-- Parent -->
     <g style="fill: #2c3e50" transform="translate(38.632127 225.221406) scale(0.095 -0.095)">
      <defs>
       <path id="DejaVuSerif-Bold-50" d="M 300 0 
L 300 378 
L 897 378 
L 897 4288 
L 300 4288 
L 300 4666 
L 2956 4666 
Q 3734 4666 4193 4295 
Q 4653 3925 4653 3303 
Q 4653 2678 4192 2304 
Q 3731 1931 2956 1931 
L 2100 1931 
L 2100 378 
L 2853 378 
L 2853 0 
L 300 0 
z
M 2100 2309 
L 2450 2309 
Q 2856 2309 3098 2579 
Q 3341 2850 3341 3303 
Q 3341 3753 3100 4020 
Q 2859 4288 2450 4288 
L 2100 4288 
L 2100 2309 
z
" transform="scale(0.015625)"/>
       <path id="DejaVuSerif-Bold-61" d="M 3525 2041 
L 3525 378 
L 4000 378 
L 4000 0 
L 2419 0 
L 2419 422 
Q 2200 159 1931 34 
Q 1663 -91 1319 -91 
Q 809 -91 536 182 
Q 263 456 263 966 
Q 263 1525 655 1803 
Q 1047 2081 1838 2081 
L 2419 2081 
L 2419 2278 
Q 2419 2681 2228 2873 
Q 2038 3066 1638 3066 
Q 1306 3066 1126 2930 
Q 947 2794 872 2484 
L 519 2484 
L 519 3200 
Q 816 3306 1134 3359 
Q 1453 3413 1806 3413 
Q 2697 3413 3111 3081 
Q 3525 2750 3525 2041 
z
M 2419 1044 
L 2419 1709 
L 2003 1709 
Q 1694 1709 1528 1540 
Q 1363 1372 1363 1056 
Q 1363 741 1483 584 
Q 1603 428 1850 428 
Q 2106 428 2262 597 
Q 2419 766 2419 1044 
z
" transform="scale(0.015625)"/>
       <path id="DejaVuSerif-Bold-72" d="M 3438 3359 
L 3438 2369 
L 3084 2369 
Q 3066 2634 2941 2764 
Q 2816 2894 2578 2894 
Q 2216 2894 2006 2575 
Q 1797 2256 1797 1691 
L 1797 378 
L 2400 378 
L 2400 0 
L 219 0 
L 219 378 
L 691 378 
L 691 2944 
L 184 2944 
L 184 3322 
L 1797 3322 
L 1797 2731 
Q 1959 3078 2226 3245 
Q 2494 3413 2881 3413 
Q 2978 3413 3117 3398 
Q 3256 3384 3438 3359 
z
" transform="scale(0.015625)"/>
      </defs>
      <use xlink:href="#DejaVuSerif-Bold-50"/>
      <use xlink:href="#DejaVuSerif-Bold-61" transform="translate(72.570312 0)"/>
      <use xlink:href="#DejaVuSerif-Bold-72" transform="translate(137.365234 0)"/>
      <use xlink:href="#DejaVuSerif-Bold-65" transform="translate(190.050781 0)"/>
      <use xlink:href="#DejaVuSerif-Bold-6e" transform="translate(253.673828 0)"/>
      <use xlink:href="#DejaVuSerif-Bold-74" transform="translate(326.378906 0)"/>
     </g>
    </g>
    <g id="patch_6">
     <path d="M 105.459177 234 
L 167.987744 234 
L 167.987744 211.2 
L 105.459177 211.2 
z
" style="fill: #f4f6f8; stroke: #cccccc; stroke-linejoin: miter"/>
    </g>
    <g id="text_5">
     <!-- 31 -->
     <g style="fill: #2c3e50" transform="translate(130.679085 225.221406) scale(0.095 -0.095)">
      <defs>
       <path id="DejaVuSerif-33" d="M 622 4469 
Q 988 4606 1323 4678 
Q 1659 4750 1953 4750 
Q 2638 4750 3022 4454 
Q 3406 4159 3406 3634 
Q 3406 3213 3140 2930 
Q 2875 2647 2388 2547 
Q 2963 2466 3280 2130 
Q 3597 1794 3597 1259 
Q 3597 606 3158 257 
Q 2719 -91 1894 -91 
Q 1528 -91 1179 -12 
Q 831 66 488 225 
L 488 1131 
L 838 1131 
Q 869 681 1141 450 
Q 1413 219 1906 219 
Q 2384 219 2661 495 
Q 2938 772 2938 1253 
Q 2938 1803 2653 2086 
Q 2369 2369 1819 2369 
L 1522 2369 
L 1522 2688 
L 1678 2688 
Q 2225 2688 2498 2914 
Q 2772 3141 2772 3597 
Q 2772 4006 2547 4223 
Q 2322 4441 1900 4441 
Q 1478 4441 1245 4241 
Q 1013 4041 972 3647 
L 622 3647 
L 622 4469 
z
" transform="scale(0.015625)"/>
       <path id="DejaVuSerif-31" d="M 909 0 
L 909 331 
L 1722 331 
L 1722 4213 
L 781 3603 
L 781 4013 
L 1919 4750 
L 2350 4750 
L 2350 331 
L 3163 331 
L 3163 0 
L 909 0 
z
" transform="scale(0.015625)"/>
      </defs>
      <use xlink:href="#DejaVuSerif-33"/>
      <use xlink:href="#DejaVuSerif-31" transform="translate(63.623047 0)"/>
     </g>
    </g>
    <g id="patch_7">
     <path d="M 167.987744 234 
L 230.516311 234 
L 230.516311 211.2 
L 167.987744 211.2 
z
" style="fill: #f4f6f8; stroke: #cccccc; stroke-linejoin: miter"/>
    </g>
    <g id="text_6">
     <!-- 67.39% -->
     <g style="fill: #2c3e50" transform="translate(181.140426 225.221406) scale(0.095 -0.095)">
      <defs>
       <path id="DejaVuSerif-36" d="M 2094 219 
Q 2534 219 2771 542 
Q 3009 866 3009 1472 
Q 3009 2078 2771 2401 
Q 2534 2725 2094 2725 
Q 1647 2725 1412 2412 
Q 1178 2100 1178 1509 
Q 1178 888 1415 553 
Q 1653 219 2094 219 
z
M 1075 2569 
Q 1288 2803 1556 2918 
Q 1825 3034 2163 3034 
Q 2859 3034 3264 2615 
Q 3669 2197 3669 1472 
Q 3669 763 3233 336 
Q 2797 -91 2069 -91 
Q 1278 -91 853 498 
Q 428 1088 428 2181 
Q 428 3406 931 4078 
Q 1434 4750 2350 4750 
Q 2597 4750 2869 4703 
Q 3141 4656 3425 4563 
L 3425 3794 
L 3072 3794 
Q 3034 4109 2831 4275 
Q 2628 4441 2284 4441 
Q 1678 4441 1381 3981 
Q 1084 3522 1075 2569 
z
" transform="scale(0.015625)"/>
       <path id="DejaVuSerif-37" d="M 3609 4347 
L 1784 0 
L 1319 0 
L 3059 4153 
L 903 4153 
L 903 3578 
L 538 3578 
L 538 4666 
L 3609 4666 
L 3609 4347 
z
" transform="scale(0.015625)"/>
       <path id="DejaVuSerif-2e" d="M 603 325 
Q 603 500 722 622 
Q 841 744 1019 744 
Q 1191 744 1312 622 
Q 1434 500 1434 325 
Q 1434 153 1312 31 
Q 1191 -91 1019 -91 
Q 841 -91 722 29 
Q 603 150 603 325 
z
" transform="scale(0.015625)"/>
       <path id="DejaVuSerif-39" d="M 2994 2091 
Q 2784 1856 2512 1740 
Q 2241 1625 1900 1625 
Q 1206 1625 804 2044 
Q 403 2463 403 3188 
Q 403 3897 839 4323 
Q 1275 4750 2003 4750 
Q 2794 4750 3217 4161 
Q 3641 3572 3641 2478 
Q 3641 1253 3137 581 
Q 2634 -91 1722 -91 
Q 1475 -91 1203 -44 
Q 931 3 647 97 
L 647 872 
L 997 872 
Q 1038 556 1241 387 
Q 1444 219 1784 219 
Q 2391 219 2687 676 
Q 2984 1134 2994 2091 
z
M 1978 4441 
Q 1534 4441 1298 4117 
Q 1063 3794 1063 3188 
Q 1063 2581 1298 2256 
Q 1534 1931 1978 1931 
Q 2422 1931 2658 2245 
Q 2894 2559 2894 3150 
Q 2894 3772 2656 4106 
Q 2419 4441 1978 4441 
z
" transform="scale(0.015625)"/>
       <path id="DejaVuSerif-25" d="M 1434 4459 
Q 1159 4459 1004 4200 
Q 850 3941 850 3475 
Q 850 3016 1008 2753 
Q 1166 2491 1434 2491 
Q 1700 2491 1854 2752 
Q 2009 3013 2009 3475 
Q 2009 3938 1854 4198 
Q 1700 4459 1434 4459 
z
M 4653 2169 
Q 4381 2169 4226 1906 
Q 4072 1644 4072 1178 
Q 4072 719 4228 458 
Q 4384 197 4653 197 
Q 4922 197 5075 458 
Q 5228 719 5228 1178 
Q 5228 1641 5073 1905 
Q 4919 2169 4653 2169 
z
M 4653 2450 
Q 5147 2450 5437 2106 
Q 5728 1763 5728 1178 
Q 5728 594 5436 251 
Q 5144 -91 4653 -91 
Q 4153 -91 3862 251 
Q 3572 594 3572 1178 
Q 3572 1766 3864 2108 
Q 4156 2450 4653 2450 
z
M 4263 4750 
L 4738 4750 
L 1819 -91 
L 1344 -91 
L 4263 4750 
z
M 1428 4750 
Q 1922 4750 2215 4408 
Q 2509 4066 2509 3481 
Q 2509 2891 2217 2550 
Q 1925 2209 1428 2209 
Q 931 2209 642 2551 
Q 353 2894 353 3481 
Q 353 4063 643 4406 
Q 934 4750 1428 4750 
z
" transform="scale(0.015625)"/>
      </defs>
      <use xlink:href="#DejaVuSerif-36"/>
      <use xlink:href="#DejaVuSerif-37" transform="translate(63.623047 0)"/>
      <use xlink:href="#DejaVuSerif-2e" transform="translate(127.246094 0)"/>
      <use xlink:href="#DejaVuSerif-33" transform="translate(159.033203 0)"/>
      <use xlink:href="#DejaVuSerif-39" transform="translate(222.65625 0)"/>
      <use xlink:href="#DejaVuSerif-25" transform="translate(286.279297 0)"/>
     </g>
    </g>
    <g id="patch_8">
     <path d="M 7.2 256.8 
L 105.459177 256.8 
L 105.459177 234 
L 7.2 234 
z
" style="fill: #2980b9; fill-opacity: 0.2; stroke: #cccccc; stroke-linejoin: miter"/>
    </g>
    <g id="text_7">
     <!-- Sister -->
     <g style="fill: #2980b9" transform="translate(40.702088 248.021406) scale(0.095 -0.095)">
      <defs>
       <path id="DejaVuSerif-Bold-53" d="M 494 225 
L 494 1331 
L 891 1331 
Q 981 806 1318 547 
Q 1656 288 2253 288 
Q 2738 288 2991 472 
Q 3244 656 3244 1013 
Q 3244 1294 3072 1450 
Q 2900 1606 2363 1741 
L 1663 1913 
Q 978 2088 700 2398 
Q 422 2709 422 3284 
Q 422 3978 883 4364 
Q 1344 4750 2175 4750 
Q 2584 4750 3026 4681 
Q 3469 4613 3944 4475 
L 3944 3444 
L 3547 3444 
Q 3456 3925 3150 4148 
Q 2844 4372 2278 4372 
Q 1816 4372 1580 4211 
Q 1344 4050 1344 3731 
Q 1344 3441 1506 3289 
Q 1669 3138 2303 2975 
L 3003 2803 
Q 3653 2641 3945 2297 
Q 4238 1953 4238 1350 
Q 4238 644 3750 276 
Q 3263 -91 2316 -91 
Q 1859 -91 1409 -12 
Q 959 66 494 225 
z
" transform="scale(0.015625)"/>
       <path id="DejaVuSerif-Bold-69" d="M 588 4263 
Q 588 4516 763 4689 
Q 938 4863 1191 4863 
Q 1438 4863 1611 4689 
Q 1784 4516 1784 4263 
Q 1784 4016 1611 3842 
Q 1438 3669 1191 3669 
Q 938 3669 763 3841 
Q 588 4013 588 4263 
z
M 1797 378 
L 2272 378 
L 2272 0 
L 219 0 
L 219 378 
L 691 378 
L 691 2944 
L 219 2944 
L 219 3322 
L 1797 3322 
L 1797 378 
z
" transform="scale(0.015625)"/>
       <path id="DejaVuSerif-Bold-73" d="M 300 97 
L 300 1025 
L 653 1025 
Q 697 653 931 458 
Q 1166 263 1569 263 
Q 1906 263 2086 380 
Q 2266 497 2266 716 
Q 2266 916 2152 1025 
Q 2038 1134 1709 1216 
L 1253 1331 
Q 738 1459 506 1698 
Q 275 1938 275 2344 
Q 275 2884 650 3148 
Q 1025 3413 1806 3413 
Q 2100 3413 2433 3364 
Q 2766 3316 3169 3213 
L 3169 2375 
L 2816 2375 
Q 2788 2716 2573 2887 
Q 2359 3059 1959 3059 
Q 1622 3059 1448 2951 
Q 1275 2844 1275 2638 
Q 1275 2469 1375 2372 
Q 1475 2275 1734 2209 
L 2188 2094 
Q 2841 1928 3091 1684 
Q 3341 1441 3341 1006 
Q 3341 444 2939 176 
Q 2538 -91 1691 -91 
Q 1381 -91 1034 -44 
Q 688 3 300 97 
z
" transform="scale(0.015625)"/>
      </defs>
      <use xlink:href="#DejaVuSerif-Bold-53"/>
      <use xlink:href="#DejaVuSerif-Bold-69" transform="translate(72.216797 0)"/>
      <use xlink:href="#DejaVuSerif-Bold-73" transform="translate(110.205078 0)"/>
      <use xlink:href="#DejaVuSerif-Bold-74" transform="translate(166.503906 0)"/>
      <use xlink:href="#DejaVuSerif-Bold-65" transform="translate(212.695312 0)"/>
      <use xlink:href="#DejaVuSerif-Bold-72" transform="translate(276.318359 0)"/>
     </g>
    </g>
    <g id="patch_9">
     <path d="M 105.459177 256.8 
L 167.987744 256.8 
L 167.987744 234 
L 105.459177 234 
z
" style="fill: #ffffff; stroke: #cccccc; stroke-linejoin: miter"/>
    </g>
    <g id="text_8">
     <!-- 15 -->
     <g style="fill: #2c3e50" transform="translate(130.679085 248.021406) scale(0.095 -0.095)">
      <defs>
       <path id="DejaVuSerif-35" d="M 3219 4666 
L 3219 4153 
L 1081 4153 
L 1081 2816 
Q 1244 2928 1461 2984 
Q 1678 3041 1947 3041 
Q 2703 3041 3140 2622 
Q 3578 2203 3578 1478 
Q 3578 738 3136 323 
Q 2694 -91 1894 -91 
Q 1572 -91 1234 -12 
Q 897 66 544 225 
L 544 1131 
L 897 1131 
Q 925 688 1179 453 
Q 1434 219 1894 219 
Q 2388 219 2653 544 
Q 2919 869 2919 1478 
Q 2919 2084 2655 2407 
Q 2391 2731 1894 2731 
Q 1613 2731 1398 2631 
Q 1184 2531 1019 2322 
L 750 2322 
L 750 4666 
L 3219 4666 
z
" transform="scale(0.015625)"/>
      </defs>
      <use xlink:href="#DejaVuSerif-31"/>
      <use xlink:href="#DejaVuSerif-35" transform="translate(63.623047 0)"/>
     </g>
    </g>
    <g id="patch_10">
     <path d="M 167.987744 256.8 
L 230.516311 256.8 
L 230.516311 234 
L 167.987744 234 
z
" style="fill: #ffffff; stroke: #cccccc; stroke-linejoin: miter"/>
    </g>
    <g id="text_9">
     <!-- 32.61% -->
     <g style="fill: #2c3e50" transform="translate(181.140426 248.021406) scale(0.095 -0.095)">
      <defs>
       <path id="DejaVuSerif-32" d="M 819 3553 
L 469 3553 
L 469 4384 
Q 803 4563 1142 4656 
Q 1481 4750 1806 4750 
Q 2534 4750 2956 4397 
Q 3378 4044 3378 3438 
Q 3378 2753 2422 1800 
Q 2347 1728 2309 1691 
L 1131 513 
L 3078 513 
L 3078 1088 
L 3444 1088 
L 3444 0 
L 434 0 
L 434 341 
L 1850 1753 
Q 2319 2222 2519 2614 
Q 2719 3006 2719 3438 
Q 2719 3909 2473 4175 
Q 2228 4441 1797 4441 
Q 1350 4441 1106 4219 
Q 863 3997 819 3553 
z
" transform="scale(0.015625)"/>
      </defs>
      <use xlink:href="#DejaVuSerif-33"/>
      <use xlink:href="#DejaVuSerif-32" transform="translate(63.623047 0)"/>
      <use xlink:href="#DejaVuSerif-2e" transform="translate(127.246094 0)"/>
      <use xlink:href="#DejaVuSerif-36" transform="translate(159.033203 0)"/>
      <use xlink:href="#DejaVuSerif-31" transform="translate(222.65625 0)"/>
      <use xlink:href="#DejaVuSerif-25" transform="translate(286.279297 0)"/>
     </g>
    </g>
    <g id="patch_11">
     <path d="M 7.2 279.6 
L 105.459177 279.6 
L 105.459177 256.8 
L 7.2 256.8 
z
" style="fill: #e8edf2; stroke: #aaaaaa; stroke-linejoin: miter"/>
    </g>
    <g id="text_10">
     <!-- Total -->
     <g style="fill: #2c3e50" transform="translate(42.399901 270.959375) scale(0.1 -0.1)">
      <defs>
       <path id="DejaVuSerif-Bold-6c" d="M 1797 378 
L 2272 378 
L 2272 0 
L 219 0 
L 219 378 
L 691 378 
L 691 4488 
L 219 4488 
L 219 4863 
L 1797 4863 
L 1797 378 
z
" transform="scale(0.015625)"/>
      </defs>
      <use xlink:href="#DejaVuSerif-Bold-54"/>
      <use xlink:href="#DejaVuSerif-Bold-6f" transform="translate(62.914062 0)"/>
      <use xlink:href="#DejaVuSerif-Bold-74" transform="translate(129.613281 0)"/>
      <use xlink:href="#DejaVuSerif-Bold-61" transform="translate(175.804688 0)"/>
      <use xlink:href="#DejaVuSerif-Bold-6c" transform="translate(240.599609 0)"/>
     </g>
    </g>
    <g id="patch_12">
     <path d="M 105.459177 279.6 
L 167.987744 279.6 
L 167.987744 256.8 
L 105.459177 256.8 
z
" style="fill: #e8edf2; stroke: #aaaaaa; stroke-linejoin: miter"/>
    </g>
    <g id="text_11">
     <!-- 46 -->
     <g style="fill: #2c3e50" transform="translate(129.765648 270.959375) scale(0.1 -0.1)">
      <defs>
       <path id="DejaVuSerif-Bold-34" d="M 4084 0 
L 1516 0 
L 1516 378 
L 2209 378 
L 2209 1228 
L 263 1228 
L 263 1588 
L 2216 4750 
L 3391 4750 
L 3391 1631 
L 4191 1631 
L 4191 1228 
L 3391 1228 
L 3391 378 
L 4084 378 
L 4084 0 
z
M 2209 1631 
L 2209 3897 
L 819 1631 
L 2209 1631 
z
" transform="scale(0.015625)"/>
       <path id="DejaVuSerif-Bold-36" d="M 1575 2766 
Q 1778 2928 2029 3009 
Q 2281 3091 2578 3091 
Q 3294 3091 3701 2672 
Q 4109 2253 4109 1522 
Q 4109 750 3650 329 
Q 3191 -91 2344 -91 
Q 1388 -91 895 486 
Q 403 1063 403 2181 
Q 403 3453 950 4101 
Q 1497 4750 2572 4750 
Q 2853 4750 3175 4703 
Q 3497 4656 3866 4563 
L 3866 3738 
L 3488 3738 
Q 3409 4056 3192 4220 
Q 2975 4384 2631 4384 
Q 2075 4384 1826 4003 
Q 1578 3622 1575 2766 
z
M 2272 275 
Q 2594 275 2731 548 
Q 2869 822 2869 1497 
Q 2869 2172 2731 2445 
Q 2594 2719 2272 2719 
Q 1950 2719 1814 2445 
Q 1678 2172 1678 1497 
Q 1678 822 1814 548 
Q 1950 275 2272 275 
z
" transform="scale(0.015625)"/>
      </defs>
      <use xlink:href="#DejaVuSerif-Bold-34"/>
      <use xlink:href="#DejaVuSerif-Bold-36" transform="translate(69.580078 0)"/>
     </g>
    </g>
    <g id="patch_13">
     <path d="M 167.987744 279.6 
L 230.516311 279.6 
L 230.516311 256.8 
L 167.987744 256.8 
z
" style="fill: #e8edf2; stroke: #aaaaaa; stroke-linejoin: miter"/>
    </g>
    <g id="text_12">
     <!-- 100.00% -->
     <g style="fill: #2c3e50" transform="translate(175.36609 270.959375) scale(0.1 -0.1)">
      <defs>
       <path id="DejaVuSerif-Bold-31" d="M 878 0 
L 878 378 
L 1753 378 
L 1753 4153 
L 781 3578 
L 781 4044 
L 1953 4750 
L 2938 4750 
L 2938 378 
L 3816 378 
L 3816 0 
L 878 0 
z
" transform="scale(0.015625)"/>
       <path id="DejaVuSerif-Bold-30" d="M 2228 275 
Q 2603 275 2742 615 
Q 2881 956 2881 2328 
Q 2881 3691 2742 4037 
Q 2603 4384 2228 4384 
Q 1853 4384 1714 4043 
Q 1575 3703 1575 2328 
Q 1575 956 1714 615 
Q 1853 275 2228 275 
z
M 2228 -91 
Q 1294 -91 797 532 
Q 300 1156 300 2328 
Q 300 3500 797 4125 
Q 1294 4750 2228 4750 
Q 3159 4750 3656 4125 
Q 4153 3500 4153 2328 
Q 4153 1156 3656 532 
Q 3159 -91 2228 -91 
z
" transform="scale(0.015625)"/>
       <path id="DejaVuSerif-Bold-2e" d="M 519 506 
Q 519 750 694 925 
Q 869 1100 1113 1100 
Q 1359 1100 1534 925 
Q 1709 750 1709 506 
Q 1709 259 1534 84 
Q 1359 -91 1113 -91 
Q 869 -91 694 84 
Q 519 259 519 506 
z
" transform="scale(0.015625)"/>
      </defs>
      <use xlink:href="#DejaVuSerif-Bold-31"/>
      <use xlink:href="#DejaVuSerif-Bold-30" transform="translate(69.580078 0)"/>
      <use xlink:href="#DejaVuSerif-Bold-30" transform="translate(139.160156 0)"/>
      <use xlink:href="#DejaVuSerif-Bold-2e" transform="translate(208.740234 0)"/>
      <use xlink:href="#DejaVuSerif-Bold-30" transform="translate(243.554688 0)"/>
      <use xlink:href="#DejaVuSerif-Bold-30" transform="translate(313.134766 0)"/>
      <use xlink:href="#DejaVuSerif-Bold-25" transform="translate(382.714844 0)"/>
     </g>
    </g>
   </g>
   <g id="text_13">
    <!-- Total Unique VCs: 46 -->
    <g style="fill: #2c3e50" transform="translate(60.021437 59.68) scale(0.1 -0.1)">
     <defs>
      <path id="DejaVuSerif-Bold-20" transform="scale(0.015625)"/>
      <path id="DejaVuSerif-Bold-55" d="M 813 4288 
L 219 4288 
L 219 4666 
L 2619 4666 
L 2619 4288 
L 2022 4288 
L 2022 1953 
Q 2022 1081 2294 732 
Q 2566 384 3225 384 
Q 3869 384 4139 736 
Q 4409 1088 4409 1953 
L 4409 4288 
L 3816 4288 
L 3816 4666 
L 5441 4666 
L 5441 4288 
L 4844 4288 
L 4844 1888 
Q 4844 819 4381 364 
Q 3919 -91 2828 -91 
Q 1744 -91 1278 368 
Q 813 828 813 1894 
L 813 4288 
z
" transform="scale(0.015625)"/>
      <path id="DejaVuSerif-Bold-71" d="M 3853 2944 
L 3853 -953 
L 4325 -953 
L 4325 -1331 
L 2234 -1331 
L 2234 -953 
L 2747 -953 
L 2747 422 
Q 2606 163 2367 36 
Q 2128 -91 1778 -91 
Q 1072 -91 667 378 
Q 263 847 263 1663 
Q 263 2481 667 2947 
Q 1072 3413 1778 3413 
Q 2128 3413 2367 3286 
Q 2606 3159 2747 2900 
L 2747 3322 
L 4325 3322 
L 4325 2944 
L 3853 2944 
z
M 2747 1825 
Q 2747 2406 2597 2665 
Q 2447 2925 2119 2925 
Q 1775 2925 1636 2651 
Q 1497 2378 1497 1663 
Q 1497 947 1637 672 
Q 1778 397 2119 397 
Q 2447 397 2597 656 
Q 2747 916 2747 1497 
L 2747 1825 
z
" transform="scale(0.015625)"/>
      <path id="DejaVuSerif-Bold-56" d="M 5056 4666 
L 5056 4288 
L 4666 4288 
L 2906 0 
L 2163 0 
L 403 4288 
L -38 4288 
L -38 4666 
L 2150 4666 
L 2150 4288 
L 1697 4288 
L 2956 1197 
L 4225 4288 
L 3669 4288 
L 3669 4666 
L 5056 4666 
z
" transform="scale(0.015625)"/>
      <path id="DejaVuSerif-Bold-3a" d="M 588 2541 
Q 588 2788 761 2963 
Q 934 3138 1178 3138 
Q 1422 3138 1597 2961 
Q 1772 2784 1772 2541 
Q 1772 2297 1598 2125 
Q 1425 1953 1178 1953 
Q 931 1953 759 2125 
Q 588 2297 588 2541 
z
M 588 506 
Q 588 750 761 925 
Q 934 1100 1178 1100 
Q 1422 1100 1597 925 
Q 1772 750 1772 506 
Q 1772 259 1597 84 
Q 1422 -91 1178 -91 
Q 934 -91 761 84 
Q 588 259 588 506 
z
" transform="scale(0.015625)"/>
     </defs>
     <use xlink:href="#DejaVuSerif-Bold-54"/>
     <use xlink:href="#DejaVuSerif-Bold-6f" transform="translate(62.914062 0)"/>
     <use xlink:href="#DejaVuSerif-Bold-74" transform="translate(129.613281 0)"/>
     <use xlink:href="#DejaVuSerif-Bold-61" transform="translate(175.804688 0)"/>
     <use xlink:href="#DejaVuSerif-Bold-6c" transform="translate(240.599609 0)"/>
     <use xlink:href="#DejaVuSerif-Bold-20" transform="translate(278.587891 0)"/>
     <use xlink:href="#DejaVuSerif-Bold-55" transform="translate(313.402344 0)"/>
     <use xlink:href="#DejaVuSerif-Bold-6e" transform="translate(400.609375 0)"/>
     <use xlink:href="#DejaVuSerif-Bold-69" transform="translate(473.314453 0)"/>
     <use xlink:href="#DejaVuSerif-Bold-71" transform="translate(511.302734 0)"/>
     <use xlink:href="#DejaVuSerif-Bold-75" transform="translate(581.224609 0)"/>
     <use xlink:href="#DejaVuSerif-Bold-65" transform="translate(653.929688 0)"/>
     <use xlink:href="#DejaVuSerif-Bold-20" transform="translate(717.552734 0)"/>
     <use xlink:href="#DejaVuSerif-Bold-56" transform="translate(752.367188 0)"/>
     <use xlink:href="#DejaVuSerif-Bold-43" transform="translate(829.955078 0)"/>
     <use xlink:href="#DejaVuSerif-Bold-73" transform="translate(909.544922 0)"/>
     <use xlink:href="#DejaVuSerif-Bold-3a" transform="translate(965.84375 0)"/>
     <use xlink:href="#DejaVuSerif-Bold-20" transform="translate(1002.757812 0)"/>
     <use xlink:href="#DejaVuSerif-Bold-34" transform="translate(1037.572266 0)"/>
     <use xlink:href="#DejaVuSerif-Bold-36" transform="translate(1107.152344 0)"/>
    </g>
   </g>
  </g>
  <g id="axes_2">
   <g id="patch_14">
    <path d="M 377.369737 162.227521 
C 364.63348 177.406001 356.164033 195.704559 352.834461 215.236902 
C 349.504889 234.769245 351.433672 254.840333 358.421984 273.381152 
C 365.410296 291.921971 377.209463 308.272764 392.603178 320.748021 
C 407.996893 333.223277 426.437383 341.379077 446.023725 344.374686 
C 465.610068 347.370296 485.6453 345.099118 504.064104 337.795275 
C 522.482909 330.491433 538.62987 318.414826 550.84049 302.810364 
C 563.05111 287.205902 570.890885 268.628855 573.551658 248.994223 
C 576.212431 229.359591 573.599521 209.366055 565.982277 191.074635 
L 462.904846 234 
z
" style="fill: #2c3e50; stroke: #ffffff; stroke-width: 1.5; stroke-linejoin: miter"/>
   </g>
   <g id="patch_15">
    <path d="M 565.982279 191.074637 
C 558.613435 173.3797 546.81082 157.876793 531.71522 146.064362 
C 516.619621 134.25193 498.733565 126.523225 479.785933 123.625308 
C 460.838302 120.727391 441.459925 122.756706 423.523721 129.517125 
C 405.587514 136.277544 389.690651 147.544024 377.369724 162.227532 
L 462.904846 234 
z
" style="fill: #2980b9; stroke: #ffffff; stroke-width: 1.5; stroke-linejoin: miter"/>
   </g>
   <g id="matplotlib.axis_1"/>
   <g id="matplotlib.axis_2"/>
   <g id="text_14">
    <!-- 67.4% -->
    <g style="fill: #ffffff" transform="translate(435.00873 319.264458) scale(0.09 -0.09)">
     <defs>
      <path id="DejaVuSerif-Bold-37" d="M 3922 3872 
L 1997 0 
L 1363 0 
L 3238 3781 
L 934 3781 
L 934 3150 
L 506 3150 
L 506 4666 
L 3922 4666 
L 3922 3872 
z
" transform="scale(0.015625)"/>
     </defs>
     <use xlink:href="#DejaVuSerif-Bold-36"/>
     <use xlink:href="#DejaVuSerif-Bold-37" transform="translate(69.580078 0)"/>
     <use xlink:href="#DejaVuSerif-Bold-2e" transform="translate(139.160156 0)"/>
     <use xlink:href="#DejaVuSerif-Bold-34" transform="translate(173.974609 0)"/>
     <use xlink:href="#DejaVuSerif-Bold-25" transform="translate(243.554688 0)"/>
    </g>
   </g>
   <g id="text_15">
    <!-- 32.6% -->
    <g style="fill: #ffffff" transform="translate(460.33035 153.702419) scale(0.09 -0.09)">
     <defs>
      <path id="DejaVuSerif-Bold-33" d="M 550 4531 
Q 963 4641 1350 4695 
Q 1738 4750 2106 4750 
Q 2950 4750 3401 4448 
Q 3853 4147 3853 3584 
Q 3853 3163 3593 2900 
Q 3334 2638 2834 2547 
Q 3444 2450 3744 2131 
Q 4044 1813 4044 1259 
Q 4044 606 3526 257 
Q 3009 -91 2028 -91 
Q 1659 -91 1267 -28 
Q 875 34 447 159 
L 447 1184 
L 825 1184 
Q 859 741 1103 508 
Q 1347 275 1778 275 
Q 2253 275 2512 539 
Q 2772 803 2772 1288 
Q 2772 1794 2501 2069 
Q 2231 2344 1734 2344 
L 1528 2344 
L 1528 2719 
L 1691 2719 
Q 2150 2719 2381 2931 
Q 2613 3144 2613 3566 
Q 2613 3963 2395 4173 
Q 2178 4384 1772 4384 
Q 1403 4384 1187 4182 
Q 972 3981 928 3597 
L 550 3597 
L 550 4531 
z
" transform="scale(0.015625)"/>
      <path id="DejaVuSerif-Bold-32" d="M 844 3513 
L 469 3513 
L 469 4519 
Q 850 4634 1223 4692 
Q 1597 4750 1978 4750 
Q 2869 4750 3367 4386 
Q 3866 4022 3866 3372 
Q 3866 2909 3591 2542 
Q 3316 2175 2541 1672 
L 1241 819 
L 3450 819 
L 3450 1369 
L 3878 1369 
L 3878 0 
L 428 0 
L 428 763 
L 1119 1241 
Q 2003 1850 2297 2278 
Q 2591 2706 2591 3278 
Q 2591 3819 2367 4101 
Q 2144 4384 1716 4384 
Q 1347 4384 1125 4161 
Q 903 3938 844 3513 
z
" transform="scale(0.015625)"/>
     </defs>
     <use xlink:href="#DejaVuSerif-Bold-33"/>
     <use xlink:href="#DejaVuSerif-Bold-32" transform="translate(69.580078 0)"/>
     <use xlink:href="#DejaVuSerif-Bold-2e" transform="translate(139.160156 0)"/>
     <use xlink:href="#DejaVuSerif-Bold-36" transform="translate(173.974609 0)"/>
     <use xlink:href="#DejaVuSerif-Bold-25" transform="translate(243.554688 0)"/>
    </g>
   </g>
   <g id="text_16">
    <!-- Distribution of -->
    <g style="fill: #2c3e50" transform="translate(421.475159 73.229493) scale(0.1 -0.1)">
     <defs>
      <path id="DejaVuSerif-Bold-44" d="M 2100 378 
L 2534 378 
Q 3266 378 3605 847 
Q 3944 1316 3944 2338 
Q 3944 3353 3606 3820 
Q 3269 4288 2534 4288 
L 2100 4288 
L 2100 378 
z
M 300 0 
L 300 378 
L 897 378 
L 897 4288 
L 300 4288 
L 300 4666 
L 2694 4666 
Q 3950 4666 4615 4066 
Q 5281 3466 5281 2338 
Q 5281 1203 4614 601 
Q 3947 0 2694 0 
L 300 0 
z
" transform="scale(0.015625)"/>
      <path id="DejaVuSerif-Bold-62" d="M 622 378 
L 622 4488 
L 147 4488 
L 147 4863 
L 1728 4863 
L 1728 2900 
Q 1869 3159 2106 3286 
Q 2344 3413 2694 3413 
Q 3403 3413 3811 2945 
Q 4219 2478 4219 1663 
Q 4219 847 3811 378 
Q 3403 -91 2694 -91 
Q 2344 -91 2106 36 
Q 1869 163 1728 422 
L 1728 0 
L 147 0 
L 147 378 
L 622 378 
z
M 1728 1497 
Q 1728 916 1876 656 
Q 2025 397 2356 397 
Q 2697 397 2836 672 
Q 2975 947 2975 1663 
Q 2975 2378 2836 2651 
Q 2697 2925 2356 2925 
Q 2025 2925 1876 2665 
Q 1728 2406 1728 1825 
L 1728 1497 
z
" transform="scale(0.015625)"/>
      <path id="DejaVuSerif-Bold-66" d="M 3097 4031 
L 2747 4031 
Q 2722 4275 2605 4394 
Q 2488 4513 2272 4513 
Q 2022 4513 1909 4333 
Q 1797 4153 1797 3750 
L 1797 3322 
L 2631 3322 
L 2631 2944 
L 1797 2944 
L 1797 378 
L 2438 378 
L 2438 0 
L 219 0 
L 219 378 
L 691 378 
L 691 2944 
L 197 2944 
L 197 3322 
L 691 3322 
L 691 3738 
Q 691 4291 1044 4577 
Q 1397 4863 2081 4863 
Q 2347 4863 2600 4833 
Q 2853 4803 3097 4744 
L 3097 4031 
z
" transform="scale(0.015625)"/>
     </defs>
     <use xlink:href="#DejaVuSerif-Bold-44"/>
     <use xlink:href="#DejaVuSerif-Bold-69" transform="translate(86.71875 0)"/>
     <use xlink:href="#DejaVuSerif-Bold-73" transform="translate(124.707031 0)"/>
     <use xlink:href="#DejaVuSerif-Bold-74" transform="translate(181.005859 0)"/>
     <use xlink:href="#DejaVuSerif-Bold-72" transform="translate(227.197266 0)"/>
     <use xlink:href="#DejaVuSerif-Bold-69" transform="translate(279.882812 0)"/>
     <use xlink:href="#DejaVuSerif-Bold-62" transform="translate(317.871094 0)"/>
     <use xlink:href="#DejaVuSerif-Bold-75" transform="translate(387.792969 0)"/>
     <use xlink:href="#DejaVuSerif-Bold-74" transform="translate(460.498047 0)"/>
     <use xlink:href="#DejaVuSerif-Bold-69" transform="translate(506.689453 0)"/>
     <use xlink:href="#DejaVuSerif-Bold-6f" transform="translate(544.677734 0)"/>
     <use xlink:href="#DejaVuSerif-Bold-6e" transform="translate(611.376953 0)"/>
     <use xlink:href="#DejaVuSerif-Bold-20" transform="translate(684.082031 0)"/>
     <use xlink:href="#DejaVuSerif-Bold-6f" transform="translate(718.896484 0)"/>
     <use xlink:href="#DejaVuSerif-Bold-66" transform="translate(785.595703 0)"/>
    </g>
    <!-- sister_or_parsub -->
    <g style="fill: #2c3e50" transform="translate(416.965003 84.427306) scale(0.1 -0.1)">
     <defs>
      <path id="DejaVuSerif-Bold-5f" d="M 3200 -916 
L 3200 -1509 
L 0 -1509 
L 0 -916 
L 3200 -916 
z
" transform="scale(0.015625)"/>
     </defs>
     <use xlink:href="#DejaVuSerif-Bold-73"/>
     <use xlink:href="#DejaVuSerif-Bold-69" transform="translate(56.298828 0)"/>
     <use xlink:href="#DejaVuSerif-Bold-73" transform="translate(94.287109 0)"/>
     <use xlink:href="#DejaVuSerif-Bold-74" transform="translate(150.585938 0)"/>
     <use xlink:href="#DejaVuSerif-Bold-65" transform="translate(196.777344 0)"/>
     <use xlink:href="#DejaVuSerif-Bold-72" transform="translate(260.400391 0)"/>
     <use xlink:href="#DejaVuSerif-Bold-5f" transform="translate(313.085938 0)"/>
     <use xlink:href="#DejaVuSerif-Bold-6f" transform="translate(363.085938 0)"/>
     <use xlink:href="#DejaVuSerif-Bold-72" transform="translate(429.785156 0)"/>
     <use xlink:href="#DejaVuSerif-Bold-5f" transform="translate(482.470703 0)"/>
     <use xlink:href="#DejaVuSerif-Bold-70" transform="translate(532.470703 0)"/>
     <use xlink:href="#DejaVuSerif-Bold-61" transform="translate(602.392578 0)"/>
     <use xlink:href="#DejaVuSerif-Bold-72" transform="translate(667.1875 0)"/>
     <use xlink:href="#DejaVuSerif-Bold-73" transform="translate(719.873047 0)"/>
     <use xlink:href="#DejaVuSerif-Bold-75" transform="translate(776.171875 0)"/>
     <use xlink:href="#DejaVuSerif-Bold-62" transform="translate(848.876953 0)"/>
    </g>
   </g>
   <g id="legend_1">
    <g id="patch_16">
     <path d="M 384.079221 430.98468 
L 541.730471 430.98468 
Q 543.330471 430.98468 543.330471 429.38468 
L 543.330471 406.69968 
Q 543.330471 405.09968 541.730471 405.09968 
L 384.079221 405.09968 
Q 382.479221 405.09968 382.479221 406.69968 
L 382.479221 429.38468 
Q 382.479221 430.98468 384.079221 430.98468 
z
" style="fill: #ffffff; opacity: 0.9; stroke: #cccccc; stroke-linejoin: miter"/>
    </g>
    <g id="text_17">
     <!-- Value  (Count) -->
     <g transform="translate(433.880471 414.37843) scale(0.08 -0.08)">
      <defs>
       <path id="DejaVuSerif-56" d="M 1119 4331 
L 2497 750 
L 3872 4331 
L 3347 4331 
L 3347 4666 
L 4716 4666 
L 4716 4331 
L 4263 4331 
L 2597 0 
L 2059 0 
L 403 4331 
L -63 4331 
L -63 4666 
L 1638 4666 
L 1638 4331 
L 1119 4331 
z
" transform="scale(0.015625)"/>
       <path id="DejaVuSerif-61" d="M 2547 1044 
L 2547 1747 
L 1806 1747 
Q 1378 1747 1168 1562 
Q 959 1378 959 997 
Q 959 650 1171 447 
Q 1384 244 1747 244 
Q 2106 244 2326 466 
Q 2547 688 2547 1044 
z
M 3122 2075 
L 3122 331 
L 3634 331 
L 3634 0 
L 2547 0 
L 2547 359 
Q 2356 128 2106 18 
Q 1856 -91 1522 -91 
Q 969 -91 644 203 
Q 319 497 319 997 
Q 319 1513 691 1797 
Q 1063 2081 1741 2081 
L 2547 2081 
L 2547 2309 
Q 2547 2688 2317 2895 
Q 2088 3103 1672 3103 
Q 1328 3103 1125 2947 
Q 922 2791 872 2484 
L 575 2484 
L 575 3156 
Q 875 3284 1158 3348 
Q 1441 3413 1709 3413 
Q 2400 3413 2761 3070 
Q 3122 2728 3122 2075 
z
" transform="scale(0.015625)"/>
       <path id="DejaVuSerif-6c" d="M 1313 331 
L 1856 331 
L 1856 0 
L 184 0 
L 184 331 
L 738 331 
L 738 4531 
L 184 4531 
L 184 4863 
L 1313 4863 
L 1313 331 
z
" transform="scale(0.015625)"/>
       <path id="DejaVuSerif-75" d="M 2266 3322 
L 3341 3322 
L 3341 331 
L 3884 331 
L 3884 0 
L 2766 0 
L 2766 588 
Q 2606 256 2353 82 
Q 2100 -91 1766 -91 
Q 1213 -91 952 223 
Q 691 538 691 1209 
L 691 2988 
L 172 2988 
L 172 3322 
L 1269 3322 
L 1269 1388 
Q 1269 781 1417 556 
Q 1566 331 1947 331 
Q 2347 331 2556 625 
Q 2766 919 2766 1478 
L 2766 2988 
L 2266 2988 
L 2266 3322 
z
" transform="scale(0.015625)"/>
       <path id="DejaVuSerif-65" d="M 3469 1600 
L 991 1600 
L 991 1575 
Q 991 903 1244 561 
Q 1497 219 1991 219 
Q 2369 219 2611 417 
Q 2853 616 2950 1006 
L 3413 1006 
Q 3275 459 2904 184 
Q 2534 -91 1931 -91 
Q 1203 -91 761 389 
Q 319 869 319 1663 
Q 319 2450 753 2931 
Q 1188 3413 1894 3413 
Q 2647 3413 3050 2948 
Q 3453 2484 3469 1600 
z
M 2791 1931 
Q 2772 2513 2545 2808 
Q 2319 3103 1894 3103 
Q 1497 3103 1269 2806 
Q 1041 2509 991 1931 
L 2791 1931 
z
" transform="scale(0.015625)"/>
       <path id="DejaVuSerif-20" transform="scale(0.015625)"/>
       <path id="DejaVuSerif-28" d="M 2041 -997 
Q 1281 -656 893 83 
Q 506 822 506 1931 
Q 506 3044 893 3783 
Q 1281 4522 2041 4863 
L 2041 4556 
Q 1559 4225 1350 3623 
Q 1141 3022 1141 1931 
Q 1141 844 1350 242 
Q 1559 -359 2041 -691 
L 2041 -997 
z
" transform="scale(0.015625)"/>
       <path id="DejaVuSerif-43" d="M 4513 1234 
Q 4306 581 3820 245 
Q 3334 -91 2591 -91 
Q 2134 -91 1743 65 
Q 1353 222 1050 525 
Q 700 875 529 1320 
Q 359 1766 359 2328 
Q 359 3416 987 4083 
Q 1616 4750 2644 4750 
Q 3025 4750 3456 4650 
Q 3888 4550 4384 4347 
L 4384 3272 
L 4031 3272 
Q 3916 3859 3567 4137 
Q 3219 4416 2591 4416 
Q 1844 4416 1459 3886 
Q 1075 3356 1075 2328 
Q 1075 1303 1459 773 
Q 1844 244 2591 244 
Q 3113 244 3450 492 
Q 3788 741 3938 1234 
L 4513 1234 
z
" transform="scale(0.015625)"/>
       <path id="DejaVuSerif-6f" d="M 1925 219 
Q 2388 219 2623 584 
Q 2859 950 2859 1663 
Q 2859 2375 2623 2739 
Q 2388 3103 1925 3103 
Q 1463 3103 1227 2739 
Q 991 2375 991 1663 
Q 991 950 1228 584 
Q 1466 219 1925 219 
z
M 1925 -91 
Q 1200 -91 759 389 
Q 319 869 319 1663 
Q 319 2456 758 2934 
Q 1197 3413 1925 3413 
Q 2653 3413 3092 2934 
Q 3531 2456 3531 1663 
Q 3531 869 3092 389 
Q 2653 -91 1925 -91 
z
" transform="scale(0.015625)"/>
       <path id="DejaVuSerif-6e" d="M 263 0 
L 263 331 
L 781 331 
L 781 2988 
L 231 2988 
L 231 3322 
L 1356 3322 
L 1356 2731 
Q 1516 3069 1770 3241 
Q 2025 3413 2363 3413 
Q 2913 3413 3172 3097 
Q 3431 2781 3431 2113 
L 3431 331 
L 3944 331 
L 3944 0 
L 2356 0 
L 2356 331 
L 2853 331 
L 2853 1931 
Q 2853 2541 2703 2767 
Q 2553 2994 2175 2994 
Q 1775 2994 1565 2701 
Q 1356 2409 1356 1850 
L 1356 331 
L 1856 331 
L 1856 0 
L 263 0 
z
" transform="scale(0.015625)"/>
       <path id="DejaVuSerif-74" d="M 691 2988 
L 184 2988 
L 184 3322 
L 691 3322 
L 691 4353 
L 1269 4353 
L 1269 3322 
L 2350 3322 
L 2350 2988 
L 1269 2988 
L 1269 878 
Q 1269 456 1350 337 
Q 1431 219 1650 219 
Q 1875 219 1978 351 
Q 2081 484 2088 781 
L 2522 781 
Q 2497 328 2275 118 
Q 2053 -91 1600 -91 
Q 1103 -91 897 129 
Q 691 350 691 878 
L 691 2988 
z
" transform="scale(0.015625)"/>
       <path id="DejaVuSerif-29" d="M 453 -997 
L 453 -691 
Q 934 -359 1145 242 
Q 1356 844 1356 1931 
Q 1356 3022 1145 3623 
Q 934 4225 453 4556 
L 453 4863 
Q 1216 4522 1603 3783 
Q 1991 3044 1991 1931 
Q 1991 822 1603 83 
Q 1216 -656 453 -997 
z
" transform="scale(0.015625)"/>
      </defs>
      <use xlink:href="#DejaVuSerif-56"/>
      <use xlink:href="#DejaVuSerif-61" transform="translate(63.091797 0)"/>
      <use xlink:href="#DejaVuSerif-6c" transform="translate(122.710938 0)"/>
      <use xlink:href="#DejaVuSerif-75" transform="translate(154.693359 0)"/>
      <use xlink:href="#DejaVuSerif-65" transform="translate(219.097656 0)"/>
      <use xlink:href="#DejaVuSerif-20" transform="translate(278.277344 0)"/>
      <use xlink:href="#DejaVuSerif-20" transform="translate(310.064453 0)"/>
      <use xlink:href="#DejaVuSerif-28" transform="translate(341.851562 0)"/>
      <use xlink:href="#DejaVuSerif-43" transform="translate(380.865234 0)"/>
      <use xlink:href="#DejaVuSerif-6f" transform="translate(457.378906 0)"/>
      <use xlink:href="#DejaVuSerif-75" transform="translate(517.583984 0)"/>
      <use xlink:href="#DejaVuSerif-6e" transform="translate(581.988281 0)"/>
      <use xlink:href="#DejaVuSerif-74" transform="translate(646.392578 0)"/>
      <use xlink:href="#DejaVuSerif-29" transform="translate(686.578125 0)"/>
     </g>
    </g>
    <g id="patch_17">
     <path d="M 385.679221 426.12093 
L 401.679221 426.12093 
L 401.679221 420.52093 
L 385.679221 420.52093 
z
" style="fill: #2c3e50; stroke: #ffffff; stroke-width: 1.5; stroke-linejoin: miter"/>
    </g>
    <g id="text_18">
     <!-- Parent  (31) -->
     <g transform="translate(408.079221 426.12093) scale(0.08 -0.08)">
      <defs>
       <path id="DejaVuSerif-50" d="M 1581 2375 
L 2406 2375 
Q 2872 2375 3115 2626 
Q 3359 2878 3359 3353 
Q 3359 3831 3115 4081 
Q 2872 4331 2406 4331 
L 1581 4331 
L 1581 2375 
z
M 353 0 
L 353 331 
L 947 331 
L 947 4331 
L 353 4331 
L 353 4666 
L 2559 4666 
Q 3259 4666 3668 4311 
Q 4078 3956 4078 3353 
Q 4078 2753 3668 2397 
Q 3259 2041 2559 2041 
L 1581 2041 
L 1581 331 
L 2303 331 
L 2303 0 
L 353 0 
z
" transform="scale(0.015625)"/>
       <path id="DejaVuSerif-72" d="M 3059 3328 
L 3059 2497 
L 2728 2497 
Q 2713 2744 2591 2866 
Q 2469 2988 2234 2988 
Q 1809 2988 1582 2694 
Q 1356 2400 1356 1850 
L 1356 331 
L 2022 331 
L 2022 0 
L 263 0 
L 263 331 
L 781 331 
L 781 2994 
L 231 2994 
L 231 3322 
L 1356 3322 
L 1356 2731 
Q 1525 3078 1790 3245 
Q 2056 3413 2438 3413 
Q 2578 3413 2733 3391 
Q 2888 3369 3059 3328 
z
" transform="scale(0.015625)"/>
      </defs>
      <use xlink:href="#DejaVuSerif-50"/>
      <use xlink:href="#DejaVuSerif-61" transform="translate(62.785156 0)"/>
      <use xlink:href="#DejaVuSerif-72" transform="translate(122.404297 0)"/>
      <use xlink:href="#DejaVuSerif-65" transform="translate(170.207031 0)"/>
      <use xlink:href="#DejaVuSerif-6e" transform="translate(229.386719 0)"/>
      <use xlink:href="#DejaVuSerif-74" transform="translate(293.791016 0)"/>
      <use xlink:href="#DejaVuSerif-20" transform="translate(333.976562 0)"/>
      <use xlink:href="#DejaVuSerif-20" transform="translate(365.763672 0)"/>
      <use xlink:href="#DejaVuSerif-28" transform="translate(397.550781 0)"/>
      <use xlink:href="#DejaVuSerif-33" transform="translate(436.564453 0)"/>
      <use xlink:href="#DejaVuSerif-31" transform="translate(500.1875 0)"/>
      <use xlink:href="#DejaVuSerif-29" transform="translate(563.810547 0)"/>
     </g>
    </g>
    <g id="patch_18">
     <path d="M 472.305471 426.12093 
L 488.305471 426.12093 
L 488.305471 420.52093 
L 472.305471 420.52093 
z
" style="fill: #2980b9; stroke: #ffffff; stroke-width: 1.5; stroke-linejoin: miter"/>
    </g>
    <g id="text_19">
     <!-- Sister  (15) -->
     <g transform="translate(494.705471 426.12093) scale(0.08 -0.08)">
      <defs>
       <path id="DejaVuSerif-53" d="M 594 225 
L 594 1288 
L 953 1284 
Q 969 753 1261 498 
Q 1553 244 2150 244 
Q 2706 244 2998 464 
Q 3291 684 3291 1106 
Q 3291 1444 3114 1625 
Q 2938 1806 2369 1978 
L 1753 2163 
Q 1084 2366 811 2669 
Q 538 2972 538 3500 
Q 538 4094 959 4422 
Q 1381 4750 2144 4750 
Q 2469 4750 2856 4679 
Q 3244 4609 3681 4475 
L 3681 3481 
L 3328 3481 
Q 3275 3975 2998 4195 
Q 2722 4416 2156 4416 
Q 1663 4416 1405 4214 
Q 1147 4013 1147 3628 
Q 1147 3294 1340 3103 
Q 1534 2913 2163 2725 
L 2741 2553 
Q 3375 2363 3645 2067 
Q 3916 1772 3916 1275 
Q 3916 597 3481 253 
Q 3047 -91 2188 -91 
Q 1803 -91 1404 -12 
Q 1006 66 594 225 
z
" transform="scale(0.015625)"/>
       <path id="DejaVuSerif-69" d="M 622 4353 
Q 622 4497 726 4603 
Q 831 4709 978 4709 
Q 1122 4709 1226 4603 
Q 1331 4497 1331 4353 
Q 1331 4206 1228 4103 
Q 1125 4000 978 4000 
Q 831 4000 726 4103 
Q 622 4206 622 4353 
z
M 1356 331 
L 1900 331 
L 1900 0 
L 231 0 
L 231 331 
L 781 331 
L 781 2988 
L 231 2988 
L 231 3322 
L 1356 3322 
L 1356 331 
z
" transform="scale(0.015625)"/>
       <path id="DejaVuSerif-73" d="M 359 184 
L 359 959 
L 691 959 
Q 703 588 923 403 
Q 1144 219 1575 219 
Q 1963 219 2166 364 
Q 2369 509 2369 788 
Q 2369 1006 2220 1140 
Q 2072 1275 1594 1428 
L 1178 1569 
Q 750 1706 558 1912 
Q 366 2119 366 2438 
Q 366 2894 700 3153 
Q 1034 3413 1625 3413 
Q 1888 3413 2178 3344 
Q 2469 3275 2778 3144 
L 2778 2419 
L 2447 2419 
Q 2434 2741 2221 2922 
Q 2009 3103 1644 3103 
Q 1281 3103 1095 2975 
Q 909 2847 909 2591 
Q 909 2381 1050 2254 
Q 1191 2128 1613 1997 
L 2069 1856 
Q 2541 1709 2748 1489 
Q 2956 1269 2956 922 
Q 2956 450 2595 179 
Q 2234 -91 1600 -91 
Q 1278 -91 972 -22 
Q 666 47 359 184 
z
" transform="scale(0.015625)"/>
      </defs>
      <use xlink:href="#DejaVuSerif-53"/>
      <use xlink:href="#DejaVuSerif-69" transform="translate(68.505859 0)"/>
      <use xlink:href="#DejaVuSerif-73" transform="translate(100.488281 0)"/>
      <use xlink:href="#DejaVuSerif-74" transform="translate(151.806641 0)"/>
      <use xlink:href="#DejaVuSerif-65" transform="translate(191.992188 0)"/>
      <use xlink:href="#DejaVuSerif-72" transform="translate(251.171875 0)"/>
      <use xlink:href="#DejaVuSerif-20" transform="translate(298.974609 0)"/>
      <use xlink:href="#DejaVuSerif-20" transform="translate(330.761719 0)"/>
      <use xlink:href="#DejaVuSerif-28" transform="translate(362.548828 0)"/>
      <use xlink:href="#DejaVuSerif-31" transform="translate(401.5625 0)"/>
      <use xlink:href="#DejaVuSerif-35" transform="translate(465.185547 0)"/>
      <use xlink:href="#DejaVuSerif-29" transform="translate(528.808594 0)"/>
     </g>
    </g>
   </g>
  </g>
  <g id="axes_3">
   <g id="table_2">
    <g id="patch_19">
     <path d="M 695.293382 216 
L 840.448984 216 
L 840.448984 198 
L 695.293382 198 
z
" style="fill: #2c3e50; stroke: #ffffff; stroke-linejoin: miter"/>
    </g>
    <g id="text_20">
     <!-- Industry -->
     <g style="fill: #ffffff" transform="translate(744.101652 209.688281) scale(0.1 -0.1)">
      <defs>
       <path id="DejaVuSerif-Bold-49" d="M 300 0 
L 300 378 
L 897 378 
L 897 4288 
L 300 4288 
L 300 4666 
L 2700 4666 
L 2700 4288 
L 2100 4288 
L 2100 378 
L 2700 378 
L 2700 0 
L 300 0 
z
" transform="scale(0.015625)"/>
       <path id="DejaVuSerif-Bold-64" d="M 2747 1497 
L 2747 1825 
Q 2747 2406 2597 2665 
Q 2447 2925 2119 2925 
Q 1775 2925 1636 2651 
Q 1497 2378 1497 1663 
Q 1497 947 1637 672 
Q 1778 397 2119 397 
Q 2447 397 2597 656 
Q 2747 916 2747 1497 
z
M 3853 378 
L 4325 378 
L 4325 0 
L 2747 0 
L 2747 422 
Q 2606 163 2367 36 
Q 2128 -91 1778 -91 
Q 1072 -91 667 378 
Q 263 847 263 1663 
Q 263 2481 667 2947 
Q 1072 3413 1778 3413 
Q 2128 3413 2367 3286 
Q 2606 3159 2747 2900 
L 2747 4488 
L 2272 4488 
L 2272 4863 
L 3853 4863 
L 3853 378 
z
" transform="scale(0.015625)"/>
      </defs>
      <use xlink:href="#DejaVuSerif-Bold-49"/>
      <use xlink:href="#DejaVuSerif-Bold-6e" transform="translate(46.777344 0)"/>
      <use xlink:href="#DejaVuSerif-Bold-64" transform="translate(119.482422 0)"/>
      <use xlink:href="#DejaVuSerif-Bold-75" transform="translate(189.404297 0)"/>
      <use xlink:href="#DejaVuSerif-Bold-73" transform="translate(262.109375 0)"/>
      <use xlink:href="#DejaVuSerif-Bold-74" transform="translate(318.408203 0)"/>
      <use xlink:href="#DejaVuSerif-Bold-72" transform="translate(364.599609 0)"/>
      <use xlink:href="#DejaVuSerif-Bold-79" transform="translate(417.285156 0)"/>
     </g>
    </g>
    <g id="patch_20">
     <path d="M 840.448984 216 
L 901.860969 216 
L 901.860969 198 
L 840.448984 198 
z
" style="fill: #2c3e50; stroke: #ffffff; stroke-linejoin: miter"/>
    </g>
    <g id="text_21">
     <!-- Count -->
     <g style="fill: #ffffff" transform="translate(854.260445 209.759375) scale(0.1 -0.1)">
      <use xlink:href="#DejaVuSerif-Bold-43"/>
      <use xlink:href="#DejaVuSerif-Bold-6f" transform="translate(79.589844 0)"/>
      <use xlink:href="#DejaVuSerif-Bold-75" transform="translate(146.289062 0)"/>
      <use xlink:href="#DejaVuSerif-Bold-6e" transform="translate(218.994141 0)"/>
      <use xlink:href="#DejaVuSerif-Bold-74" transform="translate(291.699219 0)"/>
     </g>
    </g>
    <g id="patch_21">
     <path d="M 901.860969 216 
L 974.43877 216 
L 974.43877 198 
L 901.860969 198 
z
" style="fill: #2c3e50; stroke: #ffffff; stroke-linejoin: miter"/>
    </g>
    <g id="text_22">
     <!-- % -->
     <g style="fill: #ffffff" transform="translate(933.399088 209.759375) scale(0.1 -0.1)">
      <use xlink:href="#DejaVuSerif-Bold-25"/>
     </g>
    </g>
    <g id="patch_22">
     <path d="M 695.293382 234 
L 840.448984 234 
L 840.448984 216 
L 695.293382 216 
z
" style="fill: #2c3e50; fill-opacity: 0.2; stroke: #cccccc; stroke-linejoin: miter"/>
    </g>
    <g id="text_23">
     <!-- Corporate Venture Capital -->
     <g style="fill: #2c3e50" transform="translate(697.865831 227.621406) scale(0.095 -0.095)">
      <use xlink:href="#DejaVuSerif-Bold-43"/>
      <use xlink:href="#DejaVuSerif-Bold-6f" transform="translate(79.589844 0)"/>
      <use xlink:href="#DejaVuSerif-Bold-72" transform="translate(146.289062 0)"/>
      <use xlink:href="#DejaVuSerif-Bold-70" transform="translate(198.974609 0)"/>
      <use xlink:href="#DejaVuSerif-Bold-6f" transform="translate(268.896484 0)"/>
      <use xlink:href="#DejaVuSerif-Bold-72" transform="translate(335.595703 0)"/>
      <use xlink:href="#DejaVuSerif-Bold-61" transform="translate(388.28125 0)"/>
      <use xlink:href="#DejaVuSerif-Bold-74" transform="translate(453.076172 0)"/>
      <use xlink:href="#DejaVuSerif-Bold-65" transform="translate(499.267578 0)"/>
      <use xlink:href="#DejaVuSerif-Bold-20" transform="translate(562.890625 0)"/>
      <use xlink:href="#DejaVuSerif-Bold-56" transform="translate(597.705078 0)"/>
      <use xlink:href="#DejaVuSerif-Bold-65" transform="translate(666.167969 0)"/>
      <use xlink:href="#DejaVuSerif-Bold-6e" transform="translate(729.791016 0)"/>
      <use xlink:href="#DejaVuSerif-Bold-74" transform="translate(802.496094 0)"/>
      <use xlink:href="#DejaVuSerif-Bold-75" transform="translate(848.6875 0)"/>
      <use xlink:href="#DejaVuSerif-Bold-72" transform="translate(921.392578 0)"/>
      <use xlink:href="#DejaVuSerif-Bold-65" transform="translate(974.078125 0)"/>
      <use xlink:href="#DejaVuSerif-Bold-20" transform="translate(1037.701172 0)"/>
      <use xlink:href="#DejaVuSerif-Bold-43" transform="translate(1072.515625 0)"/>
      <use xlink:href="#DejaVuSerif-Bold-61" transform="translate(1152.105469 0)"/>
      <use xlink:href="#DejaVuSerif-Bold-70" transform="translate(1216.900391 0)"/>
      <use xlink:href="#DejaVuSerif-Bold-69" transform="translate(1286.822266 0)"/>
      <use xlink:href="#DejaVuSerif-Bold-74" transform="translate(1324.810547 0)"/>
      <use xlink:href="#DejaVuSerif-Bold-61" transform="translate(1371.001953 0)"/>
      <use xlink:href="#DejaVuSerif-Bold-6c" transform="translate(1435.796875 0)"/>
     </g>
    </g>
    <g id="patch_23">
     <path d="M 840.448984 234 
L 901.860969 234 
L 901.860969 216 
L 840.448984 216 
z
" style="fill: #f4f6f8; stroke: #cccccc; stroke-linejoin: miter"/>
    </g>
    <g id="text_24">
     <!-- 39 -->
     <g style="fill: #2c3e50" transform="translate(865.110602 227.621406) scale(0.095 -0.095)">
      <use xlink:href="#DejaVuSerif-33"/>
      <use xlink:href="#DejaVuSerif-39" transform="translate(63.623047 0)"/>
     </g>
    </g>
    <g id="patch_24">
     <path d="M 901.860969 234 
L 974.43877 234 
L 974.43877 216 
L 901.860969 216 
z
" style="fill: #f4f6f8; stroke: #cccccc; stroke-linejoin: miter"/>
    </g>
    <g id="text_25">
     <!-- 84.78% -->
     <g style="fill: #2c3e50" transform="translate(920.038268 227.621406) scale(0.095 -0.095)">
      <defs>
       <path id="DejaVuSerif-38" d="M 2981 1275 
Q 2981 1775 2732 2051 
Q 2484 2328 2034 2328 
Q 1584 2328 1336 2051 
Q 1088 1775 1088 1275 
Q 1088 772 1336 495 
Q 1584 219 2034 219 
Q 2484 219 2732 495 
Q 2981 772 2981 1275 
z
M 2853 3541 
Q 2853 3966 2637 4203 
Q 2422 4441 2034 4441 
Q 1650 4441 1433 4203 
Q 1216 3966 1216 3541 
Q 1216 3113 1433 2875 
Q 1650 2638 2034 2638 
Q 2422 2638 2637 2875 
Q 2853 3113 2853 3541 
z
M 2516 2484 
Q 3047 2413 3344 2092 
Q 3641 1772 3641 1275 
Q 3641 619 3225 264 
Q 2809 -91 2034 -91 
Q 1263 -91 845 264 
Q 428 619 428 1275 
Q 428 1772 725 2092 
Q 1022 2413 1556 2484 
Q 1084 2569 832 2842 
Q 581 3116 581 3541 
Q 581 4103 968 4426 
Q 1356 4750 2034 4750 
Q 2713 4750 3100 4426 
Q 3488 4103 3488 3541 
Q 3488 3116 3236 2842 
Q 2984 2569 2516 2484 
z
" transform="scale(0.015625)"/>
       <path id="DejaVuSerif-34" d="M 2234 1581 
L 2234 4063 
L 641 1581 
L 2234 1581 
z
M 3609 0 
L 1484 0 
L 1484 331 
L 2234 331 
L 2234 1247 
L 197 1247 
L 197 1588 
L 2241 4750 
L 2859 4750 
L 2859 1581 
L 3750 1581 
L 3750 1247 
L 2859 1247 
L 2859 331 
L 3609 331 
L 3609 0 
z
" transform="scale(0.015625)"/>
      </defs>
      <use xlink:href="#DejaVuSerif-38"/>
      <use xlink:href="#DejaVuSerif-34" transform="translate(63.623047 0)"/>
      <use xlink:href="#DejaVuSerif-2e" transform="translate(127.246094 0)"/>
      <use xlink:href="#DejaVuSerif-37" transform="translate(159.033203 0)"/>
      <use xlink:href="#DejaVuSerif-38" transform="translate(222.65625 0)"/>
      <use xlink:href="#DejaVuSerif-25" transform="translate(286.279297 0)"/>
     </g>
    </g>
    <g id="patch_25">
     <path d="M 695.293382 252 
L 840.448984 252 
L 840.448984 234 
L 695.293382 234 
z
" style="fill: #2980b9; fill-opacity: 0.2; stroke: #cccccc; stroke-linejoin: miter"/>
    </g>
    <g id="text_26">
     <!-- Venture Capital -->
     <g style="fill: #2980b9" transform="translate(726.257472 245.621406) scale(0.095 -0.095)">
      <use xlink:href="#DejaVuSerif-Bold-56"/>
      <use xlink:href="#DejaVuSerif-Bold-65" transform="translate(68.462891 0)"/>
      <use xlink:href="#DejaVuSerif-Bold-6e" transform="translate(132.085938 0)"/>
      <use xlink:href="#DejaVuSerif-Bold-74" transform="translate(204.791016 0)"/>
      <use xlink:href="#DejaVuSerif-Bold-75" transform="translate(250.982422 0)"/>
      <use xlink:href="#DejaVuSerif-Bold-72" transform="translate(323.6875 0)"/>
      <use xlink:href="#DejaVuSerif-Bold-65" transform="translate(376.373047 0)"/>
      <use xlink:href="#DejaVuSerif-Bold-20" transform="translate(439.996094 0)"/>
      <use xlink:href="#DejaVuSerif-Bold-43" transform="translate(474.810547 0)"/>
      <use xlink:href="#DejaVuSerif-Bold-61" transform="translate(554.400391 0)"/>
      <use xlink:href="#DejaVuSerif-Bold-70" transform="translate(619.195312 0)"/>
      <use xlink:href="#DejaVuSerif-Bold-69" transform="translate(689.117188 0)"/>
      <use xlink:href="#DejaVuSerif-Bold-74" transform="translate(727.105469 0)"/>
      <use xlink:href="#DejaVuSerif-Bold-61" transform="translate(773.296875 0)"/>
      <use xlink:href="#DejaVuSerif-Bold-6c" transform="translate(838.091797 0)"/>
     </g>
    </g>
    <g id="patch_26">
     <path d="M 840.448984 252 
L 901.860969 252 
L 901.860969 234 
L 840.448984 234 
z
" style="fill: #ffffff; stroke: #cccccc; stroke-linejoin: miter"/>
    </g>
    <g id="text_27">
     <!-- 7 -->
     <g style="fill: #2c3e50" transform="translate(868.132789 245.621406) scale(0.095 -0.095)">
      <use xlink:href="#DejaVuSerif-37"/>
     </g>
    </g>
    <g id="patch_27">
     <path d="M 901.860969 252 
L 974.43877 252 
L 974.43877 234 
L 901.860969 234 
z
" style="fill: #ffffff; stroke: #cccccc; stroke-linejoin: miter"/>
    </g>
    <g id="text_28">
     <!-- 15.22% -->
     <g style="fill: #2c3e50" transform="translate(920.038268 245.621406) scale(0.095 -0.095)">
      <use xlink:href="#DejaVuSerif-31"/>
      <use xlink:href="#DejaVuSerif-35" transform="translate(63.623047 0)"/>
      <use xlink:href="#DejaVuSerif-2e" transform="translate(127.246094 0)"/>
      <use xlink:href="#DejaVuSerif-32" transform="translate(159.033203 0)"/>
      <use xlink:href="#DejaVuSerif-32" transform="translate(222.65625 0)"/>
      <use xlink:href="#DejaVuSerif-25" transform="translate(286.279297 0)"/>
     </g>
    </g>
    <g id="patch_28">
     <path d="M 695.293382 270 
L 840.448984 270 
L 840.448984 252 
L 695.293382 252 
z
" style="fill: #e8edf2; stroke: #aaaaaa; stroke-linejoin: miter"/>
    </g>
    <g id="text_29">
     <!-- Total -->
     <g style="fill: #2c3e50" transform="translate(753.941495 263.759375) scale(0.1 -0.1)">
      <use xlink:href="#DejaVuSerif-Bold-54"/>
      <use xlink:href="#DejaVuSerif-Bold-6f" transform="translate(62.914062 0)"/>
      <use xlink:href="#DejaVuSerif-Bold-74" transform="translate(129.613281 0)"/>
      <use xlink:href="#DejaVuSerif-Bold-61" transform="translate(175.804688 0)"/>
      <use xlink:href="#DejaVuSerif-Bold-6c" transform="translate(240.599609 0)"/>
     </g>
    </g>
    <g id="patch_29">
     <path d="M 840.448984 270 
L 901.860969 270 
L 901.860969 252 
L 840.448984 252 
z
" style="fill: #e8edf2; stroke: #aaaaaa; stroke-linejoin: miter"/>
    </g>
    <g id="text_30">
     <!-- 46 -->
     <g style="fill: #2c3e50" transform="translate(864.197164 263.759375) scale(0.1 -0.1)">
      <use xlink:href="#DejaVuSerif-Bold-34"/>
      <use xlink:href="#DejaVuSerif-Bold-36" transform="translate(69.580078 0)"/>
     </g>
    </g>
    <g id="patch_30">
     <path d="M 901.860969 270 
L 974.43877 270 
L 974.43877 252 
L 901.860969 252 
z
" style="fill: #e8edf2; stroke: #aaaaaa; stroke-linejoin: miter"/>
    </g>
    <g id="text_31">
     <!-- 100.00% -->
     <g style="fill: #2c3e50" transform="translate(914.263932 263.759375) scale(0.1 -0.1)">
      <use xlink:href="#DejaVuSerif-Bold-31"/>
      <use xlink:href="#DejaVuSerif-Bold-30" transform="translate(69.580078 0)"/>
      <use xlink:href="#DejaVuSerif-Bold-30" transform="translate(139.160156 0)"/>
      <use xlink:href="#DejaVuSerif-Bold-2e" transform="translate(208.740234 0)"/>
      <use xlink:href="#DejaVuSerif-Bold-30" transform="translate(243.554688 0)"/>
      <use xlink:href="#DejaVuSerif-Bold-30" transform="translate(313.134766 0)"/>
      <use xlink:href="#DejaVuSerif-Bold-25" transform="translate(382.714844 0)"/>
     </g>
    </g>
   </g>
  </g>
  <g id="axes_4">
   <g id="patch_31">
    <path d="M 1121.292197 162.227521 
C 1113.308525 171.74209 1106.968059 182.522428 1102.532392 194.123759 
C 1098.096725 205.725091 1095.62771 217.985643 1095.227214 230.399573 
C 1094.826717 242.813502 1096.500324 255.207703 1100.178984 267.070818 
C 1103.857644 278.933933 1109.490061 290.100538 1116.843853 300.109922 
C 1124.197645 310.119307 1133.170269 318.831896 1143.391532 325.888227 
C 1153.612796 332.944558 1164.94017 338.246235 1176.906311 341.574522 
C 1188.872453 344.902808 1201.310501 346.211294 1213.707289 345.445994 
C 1226.104077 344.680693 1238.286739 341.852277 1249.752644 337.077442 
C 1261.218549 332.302606 1271.807812 325.647932 1281.083543 317.387978 
C 1290.359275 309.128023 1298.192129 299.377968 1304.25894 288.540079 
C 1310.325752 277.70219 1314.541921 265.927595 1316.733499 253.702088 
C 1318.925078 241.476581 1319.061504 228.970639 1317.13715 216.700232 
C 1315.212796 204.429825 1311.254495 192.566055 1305.425559 181.598396 
C 1299.596623 170.630737 1291.978332 160.712127 1282.885002 152.251786 
C 1273.791671 143.791444 1263.350101 136.907347 1251.991089 131.883516 
C 1240.632077 126.859685 1228.514017 123.766175 1216.136874 122.730617 
L 1206.827306 234 
z
" style="fill: #2c3e50; stroke: #ffffff; stroke-width: 1.5; stroke-linejoin: miter"/>
   </g>
   <g id="patch_32">
    <path d="M 1216.136859 122.730617 
C 1198.32142 121.240052 1180.405852 124.049726 1163.902026 130.922534 
C 1147.398199 137.795342 1132.783821 148.532356 1121.292257 162.227452 
L 1206.827306 234 
z
" style="fill: #2980b9; stroke: #ffffff; stroke-width: 1.5; stroke-linejoin: miter"/>
   </g>
   <g id="matplotlib.axis_3"/>
   <g id="matplotlib.axis_4"/>
   <g id="text_32">
    <!-- 84.8% -->
    <g style="fill: #ffffff" transform="translate(1223.786038 313.791502) scale(0.09 -0.09)">
     <defs>
      <path id="DejaVuSerif-Bold-38" d="M 2975 2484 
Q 3531 2394 3820 2075 
Q 4109 1756 4109 1241 
Q 4109 597 3623 253 
Q 3138 -91 2222 -91 
Q 1306 -91 818 253 
Q 331 597 331 1241 
Q 331 1756 622 2075 
Q 913 2394 1466 2484 
Q 975 2597 731 2861 
Q 488 3125 488 3531 
Q 488 4125 931 4437 
Q 1375 4750 2222 4750 
Q 3066 4750 3511 4437 
Q 3956 4125 3956 3531 
Q 3956 3125 3711 2861 
Q 3466 2597 2975 2484 
z
M 2747 3519 
Q 2747 4013 2628 4198 
Q 2509 4384 2222 4384 
Q 1931 4384 1814 4198 
Q 1697 4013 1697 3519 
Q 1697 3028 1814 2845 
Q 1931 2663 2222 2663 
Q 2513 2663 2630 2845 
Q 2747 3028 2747 3519 
z
M 2869 1294 
Q 2869 1866 2723 2081 
Q 2578 2297 2222 2297 
Q 1863 2297 1719 2081 
Q 1575 1866 1575 1294 
Q 1575 716 1720 495 
Q 1866 275 2222 275 
Q 2575 275 2722 495 
Q 2869 716 2869 1294 
z
" transform="scale(0.015625)"/>
     </defs>
     <use xlink:href="#DejaVuSerif-Bold-38"/>
     <use xlink:href="#DejaVuSerif-Bold-34" transform="translate(69.580078 0)"/>
     <use xlink:href="#DejaVuSerif-Bold-2e" transform="translate(139.160156 0)"/>
     <use xlink:href="#DejaVuSerif-Bold-38" transform="translate(173.974609 0)"/>
     <use xlink:href="#DejaVuSerif-Bold-25" transform="translate(243.554688 0)"/>
    </g>
   </g>
   <g id="text_33">
    <!-- 15.2% -->
    <g style="fill: #ffffff" transform="translate(1159.398034 159.175338) scale(0.09 -0.09)">
     <defs>
      <path id="DejaVuSerif-Bold-35" d="M 3609 4666 
L 3609 3847 
L 1113 3847 
L 1113 2822 
Q 1319 2981 1572 3062 
Q 1825 3144 2106 3144 
Q 2969 3144 3469 2708 
Q 3969 2272 3969 1522 
Q 3969 759 3469 334 
Q 2969 -91 2069 -91 
Q 1688 -91 1311 -28 
Q 934 34 525 166 
L 525 1184 
L 900 1184 
Q 919 725 1139 500 
Q 1359 275 1791 275 
Q 2250 275 2472 583 
Q 2694 891 2694 1522 
Q 2694 2144 2476 2451 
Q 2259 2759 1819 2759 
Q 1581 2759 1395 2661 
Q 1209 2563 1050 2356 
L 738 2356 
L 738 4666 
L 3609 4666 
z
" transform="scale(0.015625)"/>
     </defs>
     <use xlink:href="#DejaVuSerif-Bold-31"/>
     <use xlink:href="#DejaVuSerif-Bold-35" transform="translate(69.580078 0)"/>
     <use xlink:href="#DejaVuSerif-Bold-2e" transform="translate(139.160156 0)"/>
     <use xlink:href="#DejaVuSerif-Bold-32" transform="translate(173.974609 0)"/>
     <use xlink:href="#DejaVuSerif-Bold-25" transform="translate(243.554688 0)"/>
    </g>
   </g>
   <g id="text_34">
    <!-- Distribution of -->
    <g style="fill: #2c3e50" transform="translate(1165.397618 73.229493) scale(0.1 -0.1)">
     <use xlink:href="#DejaVuSerif-Bold-44"/>
     <use xlink:href="#DejaVuSerif-Bold-69" transform="translate(86.71875 0)"/>
     <use xlink:href="#DejaVuSerif-Bold-73" transform="translate(124.707031 0)"/>
     <use xlink:href="#DejaVuSerif-Bold-74" transform="translate(181.005859 0)"/>
     <use xlink:href="#DejaVuSerif-Bold-72" transform="translate(227.197266 0)"/>
     <use xlink:href="#DejaVuSerif-Bold-69" transform="translate(279.882812 0)"/>
     <use xlink:href="#DejaVuSerif-Bold-62" transform="translate(317.871094 0)"/>
     <use xlink:href="#DejaVuSerif-Bold-75" transform="translate(387.792969 0)"/>
     <use xlink:href="#DejaVuSerif-Bold-74" transform="translate(460.498047 0)"/>
     <use xlink:href="#DejaVuSerif-Bold-69" transform="translate(506.689453 0)"/>
     <use xlink:href="#DejaVuSerif-Bold-6f" transform="translate(544.677734 0)"/>
     <use xlink:href="#DejaVuSerif-Bold-6e" transform="translate(611.376953 0)"/>
     <use xlink:href="#DejaVuSerif-Bold-20" transform="translate(684.082031 0)"/>
     <use xlink:href="#DejaVuSerif-Bold-6f" transform="translate(718.896484 0)"/>
     <use xlink:href="#DejaVuSerif-Bold-66" transform="translate(785.595703 0)"/>
    </g>
    <!-- child_vc_industry -->
    <g style="fill: #2c3e50" transform="translate(1158.5734 84.427306) scale(0.1 -0.1)">
     <defs>
      <path id="DejaVuSerif-Bold-63" d="M 3609 1038 
Q 3491 469 3123 189 
Q 2756 -91 2125 -91 
Q 1238 -91 750 368 
Q 263 828 263 1663 
Q 263 2488 744 2950 
Q 1225 3413 2081 3413 
Q 2428 3413 2781 3347 
Q 3134 3281 3500 3150 
L 3500 2228 
L 3150 2228 
Q 3100 2650 2903 2854 
Q 2706 3059 2350 3059 
Q 1888 3059 1692 2746 
Q 1497 2434 1497 1663 
Q 1497 909 1687 586 
Q 1878 263 2309 263 
Q 2644 263 2845 463 
Q 3047 663 3091 1038 
L 3609 1038 
z
" transform="scale(0.015625)"/>
      <path id="DejaVuSerif-Bold-68" d="M 219 0 
L 219 378 
L 691 378 
L 691 4488 
L 197 4488 
L 197 4863 
L 1797 4863 
L 1797 2853 
Q 1997 3150 2253 3281 
Q 2509 3413 2900 3413 
Q 3459 3413 3745 3083 
Q 4031 2753 4031 2113 
L 4031 378 
L 4506 378 
L 4506 0 
L 2522 0 
L 2522 378 
L 2925 378 
L 2925 2144 
Q 2925 2566 2817 2730 
Q 2709 2894 2444 2894 
Q 2109 2894 1953 2648 
Q 1797 2403 1797 1869 
L 1797 378 
L 2203 378 
L 2203 0 
L 219 0 
z
" transform="scale(0.015625)"/>
      <path id="DejaVuSerif-Bold-76" d="M 1428 0 
L 250 2944 
L -116 2944 
L -116 3322 
L 1791 3322 
L 1791 2944 
L 1388 2944 
L 2228 844 
L 3066 2944 
L 2631 2944 
L 2631 3322 
L 3878 3322 
L 3878 2944 
L 3494 2944 
L 2316 0 
L 1428 0 
z
" transform="scale(0.015625)"/>
     </defs>
     <use xlink:href="#DejaVuSerif-Bold-63"/>
     <use xlink:href="#DejaVuSerif-Bold-68" transform="translate(60.888672 0)"/>
     <use xlink:href="#DejaVuSerif-Bold-69" transform="translate(133.59375 0)"/>
     <use xlink:href="#DejaVuSerif-Bold-6c" transform="translate(171.582031 0)"/>
     <use xlink:href="#DejaVuSerif-Bold-64" transform="translate(209.570312 0)"/>
     <use xlink:href="#DejaVuSerif-Bold-5f" transform="translate(279.492188 0)"/>
     <use xlink:href="#DejaVuSerif-Bold-76" transform="translate(329.492188 0)"/>
     <use xlink:href="#DejaVuSerif-Bold-63" transform="translate(387.597656 0)"/>
     <use xlink:href="#DejaVuSerif-Bold-5f" transform="translate(448.486328 0)"/>
     <use xlink:href="#DejaVuSerif-Bold-69" transform="translate(498.486328 0)"/>
     <use xlink:href="#DejaVuSerif-Bold-6e" transform="translate(536.474609 0)"/>
     <use xlink:href="#DejaVuSerif-Bold-64" transform="translate(609.179688 0)"/>
     <use xlink:href="#DejaVuSerif-Bold-75" transform="translate(679.101562 0)"/>
     <use xlink:href="#DejaVuSerif-Bold-73" transform="translate(751.806641 0)"/>
     <use xlink:href="#DejaVuSerif-Bold-74" transform="translate(808.105469 0)"/>
     <use xlink:href="#DejaVuSerif-Bold-72" transform="translate(854.296875 0)"/>
     <use xlink:href="#DejaVuSerif-Bold-79" transform="translate(906.982422 0)"/>
    </g>
   </g>
   <g id="legend_2">
    <g id="patch_33">
     <path d="M 1070.453556 430.98468 
L 1343.201056 430.98468 
Q 1344.801056 430.98468 1344.801056 429.38468 
L 1344.801056 406.69968 
Q 1344.801056 405.09968 1343.201056 405.09968 
L 1070.453556 405.09968 
Q 1068.853556 405.09968 1068.853556 406.69968 
L 1068.853556 429.38468 
Q 1068.853556 430.98468 1070.453556 430.98468 
z
" style="fill: #ffffff; opacity: 0.9; stroke: #cccccc; stroke-linejoin: miter"/>
    </g>
    <g id="text_35">
     <!-- Value  (Count) -->
     <g transform="translate(1177.802931 414.37843) scale(0.08 -0.08)">
      <use xlink:href="#DejaVuSerif-56"/>
      <use xlink:href="#DejaVuSerif-61" transform="translate(63.091797 0)"/>
      <use xlink:href="#DejaVuSerif-6c" transform="translate(122.710938 0)"/>
      <use xlink:href="#DejaVuSerif-75" transform="translate(154.693359 0)"/>
      <use xlink:href="#DejaVuSerif-65" transform="translate(219.097656 0)"/>
      <use xlink:href="#DejaVuSerif-20" transform="translate(278.277344 0)"/>
      <use xlink:href="#DejaVuSerif-20" transform="translate(310.064453 0)"/>
      <use xlink:href="#DejaVuSerif-28" transform="translate(341.851562 0)"/>
      <use xlink:href="#DejaVuSerif-43" transform="translate(380.865234 0)"/>
      <use xlink:href="#DejaVuSerif-6f" transform="translate(457.378906 0)"/>
      <use xlink:href="#DejaVuSerif-75" transform="translate(517.583984 0)"/>
      <use xlink:href="#DejaVuSerif-6e" transform="translate(581.988281 0)"/>
      <use xlink:href="#DejaVuSerif-74" transform="translate(646.392578 0)"/>
      <use xlink:href="#DejaVuSerif-29" transform="translate(686.578125 0)"/>
     </g>
    </g>
    <g id="patch_34">
     <path d="M 1072.053556 426.12093 
L 1088.053556 426.12093 
L 1088.053556 420.52093 
L 1072.053556 420.52093 
z
" style="fill: #2c3e50; stroke: #ffffff; stroke-width: 1.5; stroke-linejoin: miter"/>
    </g>
    <g id="text_36">
     <!-- Corporate Venture Capital  (39) -->
     <g transform="translate(1094.453556 426.12093) scale(0.08 -0.08)">
      <defs>
       <path id="DejaVuSerif-70" d="M 1313 1825 
L 1313 1497 
Q 1313 897 1542 583 
Q 1772 269 2209 269 
Q 2650 269 2876 622 
Q 3103 975 3103 1663 
Q 3103 2353 2876 2703 
Q 2650 3053 2209 3053 
Q 1772 3053 1542 2737 
Q 1313 2422 1313 1825 
z
M 738 2988 
L 184 2988 
L 184 3322 
L 1313 3322 
L 1313 2803 
Q 1481 3116 1742 3264 
Q 2003 3413 2388 3413 
Q 3000 3413 3387 2928 
Q 3775 2444 3775 1663 
Q 3775 881 3387 395 
Q 3000 -91 2388 -91 
Q 2003 -91 1742 57 
Q 1481 206 1313 519 
L 1313 -997 
L 1856 -997 
L 1856 -1331 
L 184 -1331 
L 184 -997 
L 738 -997 
L 738 2988 
z
" transform="scale(0.015625)"/>
      </defs>
      <use xlink:href="#DejaVuSerif-43"/>
      <use xlink:href="#DejaVuSerif-6f" transform="translate(76.513672 0)"/>
      <use xlink:href="#DejaVuSerif-72" transform="translate(136.71875 0)"/>
      <use xlink:href="#DejaVuSerif-70" transform="translate(184.521484 0)"/>
      <use xlink:href="#DejaVuSerif-6f" transform="translate(248.535156 0)"/>
      <use xlink:href="#DejaVuSerif-72" transform="translate(308.740234 0)"/>
      <use xlink:href="#DejaVuSerif-61" transform="translate(356.542969 0)"/>
      <use xlink:href="#DejaVuSerif-74" transform="translate(416.162109 0)"/>
      <use xlink:href="#DejaVuSerif-65" transform="translate(456.347656 0)"/>
      <use xlink:href="#DejaVuSerif-20" transform="translate(515.527344 0)"/>
      <use xlink:href="#DejaVuSerif-56" transform="translate(547.314453 0)"/>
      <use xlink:href="#DejaVuSerif-65" transform="translate(610.40625 0)"/>
      <use xlink:href="#DejaVuSerif-6e" transform="translate(669.585938 0)"/>
      <use xlink:href="#DejaVuSerif-74" transform="translate(733.990234 0)"/>
      <use xlink:href="#DejaVuSerif-75" transform="translate(774.175781 0)"/>
      <use xlink:href="#DejaVuSerif-72" transform="translate(838.580078 0)"/>
      <use xlink:href="#DejaVuSerif-65" transform="translate(886.382812 0)"/>
      <use xlink:href="#DejaVuSerif-20" transform="translate(945.5625 0)"/>
      <use xlink:href="#DejaVuSerif-43" transform="translate(977.349609 0)"/>
      <use xlink:href="#DejaVuSerif-61" transform="translate(1053.863281 0)"/>
      <use xlink:href="#DejaVuSerif-70" transform="translate(1113.482422 0)"/>
      <use xlink:href="#DejaVuSerif-69" transform="translate(1177.496094 0)"/>
      <use xlink:href="#DejaVuSerif-74" transform="translate(1209.478516 0)"/>
      <use xlink:href="#DejaVuSerif-61" transform="translate(1249.664062 0)"/>
      <use xlink:href="#DejaVuSerif-6c" transform="translate(1309.283203 0)"/>
      <use xlink:href="#DejaVuSerif-20" transform="translate(1341.265625 0)"/>
      <use xlink:href="#DejaVuSerif-20" transform="translate(1373.052734 0)"/>
      <use xlink:href="#DejaVuSerif-28" transform="translate(1404.839844 0)"/>
      <use xlink:href="#DejaVuSerif-33" transform="translate(1443.853516 0)"/>
      <use xlink:href="#DejaVuSerif-39" transform="translate(1507.476562 0)"/>
      <use xlink:href="#DejaVuSerif-29" transform="translate(1571.099609 0)"/>
     </g>
    </g>
    <g id="patch_35">
     <path d="M 1239.264806 426.12093 
L 1255.264806 426.12093 
L 1255.264806 420.52093 
L 1239.264806 420.52093 
z
" style="fill: #2980b9; stroke: #ffffff; stroke-width: 1.5; stroke-linejoin: miter"/>
    </g>
    <g id="text_37">
     <!-- Venture Capital  (7) -->
     <g transform="translate(1261.664806 426.12093) scale(0.08 -0.08)">
      <use xlink:href="#DejaVuSerif-56"/>
      <use xlink:href="#DejaVuSerif-65" transform="translate(63.091797 0)"/>
      <use xlink:href="#DejaVuSerif-6e" transform="translate(122.271484 0)"/>
      <use xlink:href="#DejaVuSerif-74" transform="translate(186.675781 0)"/>
      <use xlink:href="#DejaVuSerif-75" transform="translate(226.861328 0)"/>
      <use xlink:href="#DejaVuSerif-72" transform="translate(291.265625 0)"/>
      <use xlink:href="#DejaVuSerif-65" transform="translate(339.068359 0)"/>
      <use xlink:href="#DejaVuSerif-20" transform="translate(398.248047 0)"/>
      <use xlink:href="#DejaVuSerif-43" transform="translate(430.035156 0)"/>
      <use xlink:href="#DejaVuSerif-61" transform="translate(506.548828 0)"/>
      <use xlink:href="#DejaVuSerif-70" transform="translate(566.167969 0)"/>
      <use xlink:href="#DejaVuSerif-69" transform="translate(630.181641 0)"/>
      <use xlink:href="#DejaVuSerif-74" transform="translate(662.164062 0)"/>
      <use xlink:href="#DejaVuSerif-61" transform="translate(702.349609 0)"/>
      <use xlink:href="#DejaVuSerif-6c" transform="translate(761.96875 0)"/>
      <use xlink:href="#DejaVuSerif-20" transform="translate(793.951172 0)"/>
      <use xlink:href="#DejaVuSerif-20" transform="translate(825.738281 0)"/>
      <use xlink:href="#DejaVuSerif-28" transform="translate(857.525391 0)"/>
      <use xlink:href="#DejaVuSerif-37" transform="translate(896.539062 0)"/>
      <use xlink:href="#DejaVuSerif-29" transform="translate(960.162109 0)"/>
     </g>
    </g>
   </g>
  </g>
  <g id="text_38">
   <!-- VC Portfolio Overview — Type &amp; Industry Distribution -->
   <g style="fill: #2c3e50" transform="translate(444.950625 17.837812) scale(0.14 -0.14)">
    <defs>
     <path id="DejaVuSerif-Bold-4f" d="M 2784 288 
Q 3381 288 3672 791 
Q 3963 1294 3963 2328 
Q 3963 3366 3672 3869 
Q 3381 4372 2784 4372 
Q 2191 4372 1898 3864 
Q 1606 3356 1606 2328 
Q 1606 1303 1898 795 
Q 2191 288 2784 288 
z
M 2784 -91 
Q 1606 -91 937 553 
Q 269 1197 269 2328 
Q 269 3459 939 4104 
Q 1609 4750 2784 4750 
Q 3963 4750 4631 4106 
Q 5300 3463 5300 2328 
Q 5300 1197 4629 553 
Q 3959 -91 2784 -91 
z
" transform="scale(0.015625)"/>
     <path id="DejaVuSerif-Bold-77" d="M 3450 3322 
L 4206 1106 
L 4831 2944 
L 4397 2944 
L 4397 3322 
L 5638 3322 
L 5638 2944 
L 5247 2944 
L 4244 0 
L 3481 0 
L 2778 2081 
L 2069 0 
L 1313 0 
L 306 2944 
L -56 2944 
L -56 3322 
L 1825 3322 
L 1825 2944 
L 1434 2944 
L 2047 1147 
L 2791 3322 
L 3450 3322 
z
" transform="scale(0.015625)"/>
     <path id="DejaVuSerif-Bold-2014" d="M 344 2075 
L 6056 2075 
L 6056 1325 
L 344 1325 
L 344 2075 
z
" transform="scale(0.015625)"/>
     <path id="DejaVuSerif-Bold-26" d="M 5663 0 
L 4166 0 
L 3769 409 
Q 3456 159 3078 34 
Q 2700 -91 2253 -91 
Q 1316 -91 786 309 
Q 256 709 256 1409 
Q 256 1919 526 2280 
Q 797 2641 1375 2900 
Q 1216 3109 1136 3300 
Q 1056 3491 1056 3669 
Q 1056 4181 1486 4465 
Q 1916 4750 2694 4750 
Q 2925 4750 3233 4712 
Q 3541 4675 3928 4603 
L 3928 3628 
L 3525 3628 
Q 3469 4016 3287 4194 
Q 3106 4372 2772 4372 
Q 2456 4372 2275 4222 
Q 2094 4072 2094 3816 
Q 2094 3528 2653 2959 
Q 2716 2897 2747 2869 
L 4184 1363 
Q 4372 1575 4478 1853 
Q 4584 2131 4613 2484 
L 4044 2484 
L 4044 2859 
L 5606 2859 
L 5606 2484 
L 5056 2484 
Q 5003 2028 4861 1675 
Q 4719 1322 4488 1050 
L 5131 378 
L 5663 378 
L 5663 0 
z
M 3475 716 
L 1709 2553 
Q 1538 2344 1450 2108 
Q 1363 1872 1363 1613 
Q 1363 1084 1695 743 
Q 2028 403 2541 403 
Q 2784 403 3014 479 
Q 3244 556 3475 716 
z
" transform="scale(0.015625)"/>
    </defs>
    <use xlink:href="#DejaVuSerif-Bold-56"/>
    <use xlink:href="#DejaVuSerif-Bold-43" transform="translate(77.587891 0)"/>
    <use xlink:href="#DejaVuSerif-Bold-20" transform="translate(157.177734 0)"/>
    <use xlink:href="#DejaVuSerif-Bold-50" transform="translate(191.992188 0)"/>
    <use xlink:href="#DejaVuSerif-Bold-6f" transform="translate(264.5625 0)"/>
    <use xlink:href="#DejaVuSerif-Bold-72" transform="translate(331.261719 0)"/>
    <use xlink:href="#DejaVuSerif-Bold-74" transform="translate(383.947266 0)"/>
    <use xlink:href="#DejaVuSerif-Bold-66" transform="translate(430.138672 0)"/>
    <use xlink:href="#DejaVuSerif-Bold-6f" transform="translate(473.15625 0)"/>
    <use xlink:href="#DejaVuSerif-Bold-6c" transform="translate(539.855469 0)"/>
    <use xlink:href="#DejaVuSerif-Bold-69" transform="translate(577.84375 0)"/>
    <use xlink:href="#DejaVuSerif-Bold-6f" transform="translate(615.832031 0)"/>
    <use xlink:href="#DejaVuSerif-Bold-20" transform="translate(682.53125 0)"/>
    <use xlink:href="#DejaVuSerif-Bold-4f" transform="translate(717.345703 0)"/>
    <use xlink:href="#DejaVuSerif-Bold-76" transform="translate(804.455078 0)"/>
    <use xlink:href="#DejaVuSerif-Bold-65" transform="translate(862.560547 0)"/>
    <use xlink:href="#DejaVuSerif-Bold-72" transform="translate(926.183594 0)"/>
    <use xlink:href="#DejaVuSerif-Bold-76" transform="translate(978.869141 0)"/>
    <use xlink:href="#DejaVuSerif-Bold-69" transform="translate(1036.974609 0)"/>
    <use xlink:href="#DejaVuSerif-Bold-65" transform="translate(1074.962891 0)"/>
    <use xlink:href="#DejaVuSerif-Bold-77" transform="translate(1138.585938 0)"/>
    <use xlink:href="#DejaVuSerif-Bold-20" transform="translate(1224.669922 0)"/>
    <use xlink:href="#DejaVuSerif-Bold-2014" transform="translate(1259.484375 0)"/>
    <use xlink:href="#DejaVuSerif-Bold-20" transform="translate(1359.484375 0)"/>
    <use xlink:href="#DejaVuSerif-Bold-54" transform="translate(1394.298828 0)"/>
    <use xlink:href="#DejaVuSerif-Bold-79" transform="translate(1457.712891 0)"/>
    <use xlink:href="#DejaVuSerif-Bold-70" transform="translate(1515.818359 0)"/>
    <use xlink:href="#DejaVuSerif-Bold-65" transform="translate(1585.740234 0)"/>
    <use xlink:href="#DejaVuSerif-Bold-20" transform="translate(1649.363281 0)"/>
    <use xlink:href="#DejaVuSerif-Bold-26" transform="translate(1684.177734 0)"/>
    <use xlink:href="#DejaVuSerif-Bold-20" transform="translate(1774.460938 0)"/>
    <use xlink:href="#DejaVuSerif-Bold-49" transform="translate(1809.275391 0)"/>
    <use xlink:href="#DejaVuSerif-Bold-6e" transform="translate(1856.052734 0)"/>
    <use xlink:href="#DejaVuSerif-Bold-64" transform="translate(1928.757812 0)"/>
    <use xlink:href="#DejaVuSerif-Bold-75" transform="translate(1998.679688 0)"/>
    <use xlink:href="#DejaVuSerif-Bold-73" transform="translate(2071.384766 0)"/>
    <use xlink:href="#DejaVuSerif-Bold-74" transform="translate(2127.683594 0)"/>
    <use xlink:href="#DejaVuSerif-Bold-72" transform="translate(2173.875 0)"/>
    <use xlink:href="#DejaVuSerif-Bold-79" transform="translate(2226.560547 0)"/>
    <use xlink:href="#DejaVuSerif-Bold-20" transform="translate(2284.666016 0)"/>
    <use xlink:href="#DejaVuSerif-Bold-44" transform="translate(2319.480469 0)"/>
    <use xlink:href="#DejaVuSerif-Bold-69" transform="translate(2406.199219 0)"/>
    <use xlink:href="#DejaVuSerif-Bold-73" transform="translate(2444.1875 0)"/>
    <use xlink:href="#DejaVuSerif-Bold-74" transform="translate(2500.486328 0)"/>
    <use xlink:href="#DejaVuSerif-Bold-72" transform="translate(2546.677734 0)"/>
    <use xlink:href="#DejaVuSerif-Bold-69" transform="translate(2599.363281 0)"/>
    <use xlink:href="#DejaVuSerif-Bold-62" transform="translate(2637.351562 0)"/>
    <use xlink:href="#DejaVuSerif-Bold-75" transform="translate(2707.273438 0)"/>
    <use xlink:href="#DejaVuSerif-Bold-74" transform="translate(2779.978516 0)"/>
    <use xlink:href="#DejaVuSerif-Bold-69" transform="translate(2826.169922 0)"/>
    <use xlink:href="#DejaVuSerif-Bold-6f" transform="translate(2864.158203 0)"/>
    <use xlink:href="#DejaVuSerif-Bold-6e" transform="translate(2930.857422 0)"/>
   </g>
  </g>
  <g id="text_39">
   <!-- Note: Based on 46 total rows | 46 unique VC IDs. -->
   <g style="fill: #999999" transform="translate(555.36 456.48) scale(0.08 -0.08)">
    <defs>
     <path id="DejaVuSerif-Italic-4e" d="M -128 0 
L -66 331 
L 563 331 
L 1341 4331 
L 713 4331 
L 778 4666 
L 1975 4666 
L 4056 984 
L 4706 4331 
L 4081 4331 
L 4147 4666 
L 5784 4666 
L 5719 4331 
L 5091 4331 
L 4231 -91 
L 3853 -91 
L 1631 3841 
L 947 331 
L 1575 331 
L 1513 0 
L -128 0 
z
" transform="scale(0.015625)"/>
     <path id="DejaVuSerif-Italic-6f" d="M 1644 219 
Q 2106 219 2414 584 
Q 2722 950 2859 1663 
Q 2922 1988 2922 2241 
Q 2922 2541 2834 2738 
Q 2669 3103 2206 3103 
Q 1744 3103 1436 2739 
Q 1128 2375 991 1663 
Q 928 1338 928 1088 
Q 928 784 1019 584 
Q 1184 219 1644 219 
z
M 1584 -91 
Q 859 -91 513 388 
Q 272 722 272 1203 
Q 272 1419 319 1663 
Q 472 2456 1005 2934 
Q 1538 3413 2266 3413 
Q 2994 3413 3341 2934 
Q 3578 2603 3578 2122 
Q 3578 1906 3531 1663 
Q 3378 869 2845 389 
Q 2313 -91 1584 -91 
z
" transform="scale(0.015625)"/>
     <path id="DejaVuSerif-Italic-74" d="M 856 2988 
L 350 2988 
L 416 3322 
L 922 3322 
L 1122 4353 
L 1700 4353 
L 1500 3322 
L 2581 3322 
L 2516 2988 
L 1434 2988 
L 1025 878 
Q 978 631 978 488 
Q 978 388 1000 338 
Q 1059 219 1278 219 
Q 1503 219 1633 351 
Q 1763 484 1825 781 
L 2259 781 
Q 2147 328 1884 118 
Q 1622 -91 1169 -91 
Q 672 -91 506 131 
Q 406 266 406 516 
Q 406 675 447 878 
L 856 2988 
z
" transform="scale(0.015625)"/>
     <path id="DejaVuSerif-Italic-65" d="M 938 1275 
Q 925 1156 925 1050 
Q 925 756 1031 563 
Q 1216 219 1709 219 
Q 2072 219 2250 328 
Q 2569 525 2644 778 
L 3066 778 
Q 2941 381 2475 103 
Q 2150 -91 1506 -91 
Q 863 -91 516 388 
Q 272 722 272 1206 
Q 272 1419 319 1659 
Q 472 2450 1000 2931 
Q 1528 3413 2278 3413 
Q 3500 3413 3500 2547 
Q 3500 1913 2859 1603 
Q 2206 1288 938 1275 
z
M 2541 1975 
Q 2891 2181 2891 2569 
Q 2891 3103 2181 3103 
Q 1763 3103 1472 2784 
Q 1181 2466 1003 1606 
Q 2006 1653 2541 1975 
z
" transform="scale(0.015625)"/>
     <path id="DejaVuSerif-Italic-3a" d="M 529 29 
Q 434 150 468 325 
Q 503 500 647 622 
Q 791 744 966 744 
Q 1141 744 1237 622 
Q 1334 500 1300 325 
Q 1266 150 1123 29 
Q 981 -91 803 -91 
Q 625 -91 529 29 
z
M 926 2067 
Q 828 2188 862 2363 
Q 897 2538 1040 2658 
Q 1184 2778 1359 2778 
Q 1538 2778 1633 2659 
Q 1728 2541 1693 2362 
Q 1659 2184 1518 2065 
Q 1378 1947 1200 1947 
Q 1025 1947 926 2067 
z
" transform="scale(0.015625)"/>
     <path id="DejaVuSerif-Italic-20" transform="scale(0.015625)"/>
     <path id="DejaVuSerif-Italic-42" d="M 1194 331 
L 2128 331 
Q 2691 331 2998 575 
Q 3306 819 3409 1350 
Q 3513 1878 3302 2120 
Q 3091 2363 2525 2363 
L 1591 2363 
L 1194 331 
z
M 1653 2694 
L 2447 2694 
Q 2959 2694 3234 2891 
Q 3509 3088 3591 3513 
Q 3675 3941 3476 4136 
Q 3278 4331 2766 4331 
L 1972 4331 
L 1653 2694 
z
M -97 0 
L -34 331 
L 559 331 
L 1338 4331 
L 744 4331 
L 809 4666 
L 3113 4666 
Q 3819 4666 4120 4377 
Q 4422 4088 4309 3513 
Q 4231 3097 3934 2850 
Q 3638 2603 3147 2547 
Q 3728 2472 3976 2167 
Q 4225 1863 4125 1350 
Q 3991 656 3489 328 
Q 2988 0 2059 0 
L -97 0 
z
" transform="scale(0.015625)"/>
     <path id="DejaVuSerif-Italic-61" d="M 2325 519 
Q 1909 -91 1238 -91 
Q 688 -91 409 281 
Q 216 544 216 919 
Q 216 1078 250 1256 
Q 463 2359 1231 2928 
Q 1884 3413 2675 3413 
Q 3206 3413 3388 3322 
L 2806 331 
L 3300 331 
L 3238 0 
L 2225 0 
L 2325 519 
z
M 822 938 
Q 822 269 1469 269 
Q 1863 269 2130 583 
Q 2397 897 2516 1497 
L 2806 3003 
L 2806 3003 
Q 2806 3094 2556 3094 
Q 1956 3094 1491 2625 
Q 1028 2153 863 1297 
Q 822 1097 822 938 
z
" transform="scale(0.015625)"/>
     <path id="DejaVuSerif-Italic-73" d="M 222 959 
L 553 959 
Q 541 869 541 788 
Q 541 219 1313 219 
Q 2088 219 2200 788 
Q 2209 844 2209 944 
Q 2209 1041 2103 1158 
Q 1997 1275 1550 1428 
L 1159 1569 
Q 759 1706 629 1882 
Q 500 2059 500 2263 
Q 500 2344 516 2438 
Q 606 2894 990 3153 
Q 1375 3413 1931 3413 
Q 2484 3413 3066 3144 
L 2925 2419 
L 2594 2419 
Q 2606 2491 2606 2553 
Q 2606 2781 2448 2942 
Q 2291 3103 1925 3103 
Q 1191 3103 1091 2591 
Q 1078 2538 1078 2444 
Q 1078 2347 1179 2237 
Q 1281 2128 1678 1997 
L 2106 1856 
Q 2550 1709 2716 1488 
Q 2831 1331 2831 1178 
Q 2831 522 2306 181 
Q 1894 -91 1262 -91 
Q 631 -91 72 184 
L 222 959 
z
" transform="scale(0.015625)"/>
     <path id="DejaVuSerif-Italic-64" d="M 3841 4863 
L 2897 0 
L 2322 0 
L 2422 519 
Q 2191 206 1902 57 
Q 1613 -91 1228 -91 
Q 616 -91 322 394 
Q 125 716 125 1166 
Q 125 1397 178 1663 
Q 331 2444 812 2928 
Q 1294 3413 1909 3413 
Q 2294 3413 2525 3264 
Q 2756 3116 2866 2803 
L 3200 4531 
L 2656 4531 
L 2722 4863 
L 3841 4863 
z
M 2613 1497 
L 2675 1825 
Q 2722 2069 2722 2266 
Q 2722 2550 2622 2738 
Q 2456 3053 2019 3053 
Q 1575 3053 1279 2703 
Q 984 2353 850 1663 
Q 788 1347 788 1103 
Q 788 813 875 622 
Q 1031 269 1475 269 
Q 1913 269 2203 583 
Q 2494 897 2613 1497 
z
" transform="scale(0.015625)"/>
     <path id="DejaVuSerif-Italic-6e" d="M 450 0 
L 1031 2988 
L 481 2988 
L 544 3322 
L 1669 3322 
L 1556 2731 
Q 1781 3069 2068 3241 
Q 2356 3413 2694 3413 
Q 3244 3413 3444 3097 
Q 3563 2906 3563 2588 
Q 3563 2378 3509 2113 
L 3163 331 
L 3675 331 
L 3613 0 
L 2522 0 
L 2897 1931 
Q 2959 2253 2959 2469 
Q 2959 2659 2909 2769 
Q 2803 2994 2425 2994 
Q 2025 2994 1759 2701 
Q 1494 2409 1384 1850 
L 1025 0 
L 450 0 
z
" transform="scale(0.015625)"/>
     <path id="DejaVuSerif-Italic-34" d="M 2084 1581 
L 2566 4063 
L 491 1581 
L 2084 1581 
z
M 3150 0 
L 1025 0 
L 1091 331 
L 1841 331 
L 2019 1247 
L -19 1247 
L 47 1588 
L 2706 4750 
L 3325 4750 
L 2709 1581 
L 3600 1581 
L 3534 1247 
L 2644 1247 
L 2466 331 
L 3216 331 
L 3150 0 
z
" transform="scale(0.015625)"/>
     <path id="DejaVuSerif-Italic-36" d="M 1070 553 
Q 1244 219 1684 219 
Q 2125 219 2425 542 
Q 2725 866 2842 1472 
Q 2959 2078 2786 2401 
Q 2613 2725 2172 2725 
Q 1725 2725 1429 2412 
Q 1134 2100 1019 1509 
Q 897 888 1070 553 
z
M 1122 2569 
Q 1378 2803 1670 2918 
Q 1963 3034 2300 3034 
Q 2997 3034 3320 2615 
Q 3644 2197 3503 1472 
Q 3366 763 2845 336 
Q 2325 -91 1597 -91 
Q 806 -91 497 498 
Q 188 1088 400 2181 
Q 638 3406 1272 4078 
Q 1906 4750 2822 4750 
Q 3069 4750 3331 4703 
Q 3594 4656 3859 4563 
L 3709 3794 
L 3356 3794 
Q 3381 4109 3209 4275 
Q 3038 4441 2694 4441 
Q 2088 4441 1702 3981 
Q 1316 3522 1122 2569 
z
" transform="scale(0.015625)"/>
     <path id="DejaVuSerif-Italic-6c" d="M 903 331 
L 1447 331 
L 1384 0 
L 266 0 
L 1147 4531 
L 594 4531 
L 656 4863 
L 1784 4863 
L 903 331 
z
" transform="scale(0.015625)"/>
     <path id="DejaVuSerif-Italic-72" d="M 3375 3328 
L 3213 2497 
L 2881 2497 
Q 2891 2559 2891 2613 
Q 2891 2775 2816 2866 
Q 2719 2988 2484 2988 
Q 2059 2988 1775 2694 
Q 1491 2400 1384 1850 
L 1025 0 
L 450 0 
L 1031 2994 
L 481 2994 
L 544 3322 
L 1669 3322 
L 1556 2731 
Q 1791 3078 2089 3245 
Q 2388 3413 2769 3413 
Q 2909 3413 3059 3391 
Q 3209 3369 3375 3328 
z
" transform="scale(0.015625)"/>
     <path id="DejaVuSerif-Italic-77" d="M 3741 728 
Q 4156 1178 4250 1344 
Q 4594 1969 4931 2988 
L 4447 2984 
L 4513 3322 
L 5347 3322 
L 5281 2984 
L 5278 2984 
Q 4959 1825 4656 1266 
Q 4209 469 3719 0 
L 3241 0 
L 2900 2484 
L 1597 0 
L 1138 0 
L 734 2988 
L 359 2981 
L 425 3322 
L 1281 3322 
L 1631 728 
L 2991 3322 
L 3394 3322 
L 3741 728 
z
" transform="scale(0.015625)"/>
     <path id="DejaVuSerif-Italic-7c" d="M 1331 4891 
L 1331 -1509 
L 825 -1509 
L 825 4891 
L 1331 4891 
z
" transform="scale(0.015625)"/>
     <path id="DejaVuSerif-Italic-75" d="M 3097 3322 
L 3672 3322 
L 3091 331 
L 3634 331 
L 3572 0 
L 2453 0 
L 2566 588 
Q 2341 256 2055 82 
Q 1769 -91 1434 -91 
Q 881 -91 681 225 
Q 559 413 559 734 
Q 559 944 613 1209 
L 956 2988 
L 438 2988 
L 503 3322 
L 1600 3322 
L 1225 1388 
Q 1163 1066 1163 853 
Q 1163 663 1213 556 
Q 1316 331 1697 331 
Q 2097 331 2364 625 
Q 2631 919 2738 1478 
L 3097 3322 
z
" transform="scale(0.015625)"/>
     <path id="DejaVuSerif-Italic-69" d="M 1009 4353 
Q 1038 4497 1163 4603 
Q 1288 4709 1434 4709 
Q 1578 4709 1663 4603 
Q 1728 4522 1728 4422 
Q 1728 4388 1719 4353 
Q 1691 4206 1567 4103 
Q 1444 4000 1297 4000 
Q 1150 4000 1066 4103 
Q 1003 4181 1003 4281 
Q 1003 4316 1009 4353 
z
M 963 331 
L 1506 331 
L 1444 0 
L 325 0 
L 903 2988 
L 353 2988 
L 419 3322 
L 1544 3322 
L 963 331 
z
" transform="scale(0.015625)"/>
     <path id="DejaVuSerif-Italic-71" d="M 2684 519 
Q 2469 206 2206 56 
Q 1944 -91 1597 -91 
Q 1047 -91 769 281 
Q 594 516 575 841 
Q 563 1031 606 1256 
Q 822 2359 1588 2928 
Q 2241 3409 3006 3413 
Q 3613 3416 3803 3322 
L 2963 -1000 
L 3516 -1000 
L 3450 -1331 
L 2322 -1331 
L 2684 519 
z
M 2916 3094 
Q 2316 3094 1850 2625 
Q 1388 2153 1219 1297 
Q 1172 1044 1184 853 
Q 1197 659 1275 528 
Q 1428 269 1828 269 
Q 2222 269 2489 583 
Q 2756 897 2872 1497 
L 3166 3003 
Q 3169 3094 2916 3094 
z
" transform="scale(0.015625)"/>
     <path id="DejaVuSerif-Italic-56" d="M 1506 4331 
L 2191 750 
L 4259 4331 
L 3734 4331 
L 3800 4666 
L 5169 4666 
L 5103 4331 
L 4650 4331 
L 2144 0 
L 1606 0 
L 791 4331 
L 325 4331 
L 391 4666 
L 2091 4666 
L 2025 4331 
L 1506 4331 
z
" transform="scale(0.015625)"/>
     <path id="DejaVuSerif-Italic-43" d="M 4300 1234 
Q 3966 581 3414 245 
Q 2863 -91 2119 -91 
Q 1663 -91 1303 65 
Q 944 222 700 525 
Q 419 875 334 1320 
Q 250 1766 359 2328 
Q 572 3416 1330 4083 
Q 2088 4750 3116 4750 
Q 3497 4750 3908 4650 
Q 4319 4550 4775 4347 
L 4569 3272 
L 4216 3272 
Q 4213 3859 3919 4137 
Q 3625 4416 2997 4416 
Q 2250 4416 1762 3886 
Q 1275 3356 1075 2328 
Q 875 1303 1156 773 
Q 1438 244 2184 244 
Q 2706 244 3092 492 
Q 3478 741 3725 1234 
L 4300 1234 
z
" transform="scale(0.015625)"/>
     <path id="DejaVuSerif-Italic-49" d="M 1194 331 
L 1788 331 
L 1725 0 
L -97 0 
L -34 331 
L 559 331 
L 1338 4331 
L 744 4331 
L 809 4666 
L 2631 4666 
L 2566 4331 
L 1972 4331 
L 1194 331 
z
" transform="scale(0.015625)"/>
     <path id="DejaVuSerif-Italic-44" d="M 1194 331 
L 1775 331 
Q 2684 331 3271 850 
Q 3859 1369 4048 2337 
Q 4238 3306 3852 3818 
Q 3466 4331 2553 4331 
L 1972 4331 
L 1194 331 
z
M -97 0 
L -34 331 
L 559 331 
L 1338 4331 
L 744 4331 
L 809 4666 
L 2666 4666 
Q 3872 4666 4426 4050 
Q 4981 3434 4766 2338 
Q 4553 1238 3758 619 
Q 2963 0 1759 0 
L -97 0 
z
" transform="scale(0.015625)"/>
     <path id="DejaVuSerif-Italic-2e" d="M 664 29 
Q 569 150 603 325 
Q 638 500 780 622 
Q 922 744 1100 744 
Q 1272 744 1370 622 
Q 1469 500 1434 325 
Q 1400 153 1254 31 
Q 1109 -91 938 -91 
Q 759 -91 664 29 
z
" transform="scale(0.015625)"/>
    </defs>
    <use xlink:href="#DejaVuSerif-Italic-4e"/>
    <use xlink:href="#DejaVuSerif-Italic-6f" transform="translate(87.5 0)"/>
    <use xlink:href="#DejaVuSerif-Italic-74" transform="translate(147.705078 0)"/>
    <use xlink:href="#DejaVuSerif-Italic-65" transform="translate(187.890625 0)"/>
    <use xlink:href="#DejaVuSerif-Italic-3a" transform="translate(247.070312 0)"/>
    <use xlink:href="#DejaVuSerif-Italic-20" transform="translate(280.761719 0)"/>
    <use xlink:href="#DejaVuSerif-Italic-42" transform="translate(312.548828 0)"/>
    <use xlink:href="#DejaVuSerif-Italic-61" transform="translate(386.035156 0)"/>
    <use xlink:href="#DejaVuSerif-Italic-73" transform="translate(445.654297 0)"/>
    <use xlink:href="#DejaVuSerif-Italic-65" transform="translate(496.972656 0)"/>
    <use xlink:href="#DejaVuSerif-Italic-64" transform="translate(556.152344 0)"/>
    <use xlink:href="#DejaVuSerif-Italic-20" transform="translate(620.166016 0)"/>
    <use xlink:href="#DejaVuSerif-Italic-6f" transform="translate(651.953125 0)"/>
    <use xlink:href="#DejaVuSerif-Italic-6e" transform="translate(712.158203 0)"/>
    <use xlink:href="#DejaVuSerif-Italic-20" transform="translate(776.5625 0)"/>
    <use xlink:href="#DejaVuSerif-Italic-34" transform="translate(808.349609 0)"/>
    <use xlink:href="#DejaVuSerif-Italic-36" transform="translate(871.972656 0)"/>
    <use xlink:href="#DejaVuSerif-Italic-20" transform="translate(935.595703 0)"/>
    <use xlink:href="#DejaVuSerif-Italic-74" transform="translate(967.382812 0)"/>
    <use xlink:href="#DejaVuSerif-Italic-6f" transform="translate(1007.568359 0)"/>
    <use xlink:href="#DejaVuSerif-Italic-74" transform="translate(1067.773438 0)"/>
    <use xlink:href="#DejaVuSerif-Italic-61" transform="translate(1107.958984 0)"/>
    <use xlink:href="#DejaVuSerif-Italic-6c" transform="translate(1167.578125 0)"/>
    <use xlink:href="#DejaVuSerif-Italic-20" transform="translate(1199.560547 0)"/>
    <use xlink:href="#DejaVuSerif-Italic-72" transform="translate(1231.347656 0)"/>
    <use xlink:href="#DejaVuSerif-Italic-6f" transform="translate(1279.150391 0)"/>
    <use xlink:href="#DejaVuSerif-Italic-77" transform="translate(1339.355469 0)"/>
    <use xlink:href="#DejaVuSerif-Italic-73" transform="translate(1424.951172 0)"/>
    <use xlink:href="#DejaVuSerif-Italic-20" transform="translate(1476.269531 0)"/>
    <use xlink:href="#DejaVuSerif-Italic-7c" transform="translate(1508.056641 0)"/>
    <use xlink:href="#DejaVuSerif-Italic-20" transform="translate(1541.748047 0)"/>
    <use xlink:href="#DejaVuSerif-Italic-34" transform="translate(1573.535156 0)"/>
    <use xlink:href="#DejaVuSerif-Italic-36" transform="translate(1637.158203 0)"/>
    <use xlink:href="#DejaVuSerif-Italic-20" transform="translate(1700.78125 0)"/>
    <use xlink:href="#DejaVuSerif-Italic-75" transform="translate(1732.568359 0)"/>
    <use xlink:href="#DejaVuSerif-Italic-6e" transform="translate(1796.972656 0)"/>
    <use xlink:href="#DejaVuSerif-Italic-69" transform="translate(1861.376953 0)"/>
    <use xlink:href="#DejaVuSerif-Italic-71" transform="translate(1893.359375 0)"/>
    <use xlink:href="#DejaVuSerif-Italic-75" transform="translate(1957.373047 0)"/>
    <use xlink:href="#DejaVuSerif-Italic-65" transform="translate(2021.777344 0)"/>
    <use xlink:href="#DejaVuSerif-Italic-20" transform="translate(2080.957031 0)"/>
    <use xlink:href="#DejaVuSerif-Italic-56" transform="translate(2112.744141 0)"/>
    <use xlink:href="#DejaVuSerif-Italic-43" transform="translate(2184.960938 0)"/>
    <use xlink:href="#DejaVuSerif-Italic-20" transform="translate(2261.474609 0)"/>
    <use xlink:href="#DejaVuSerif-Italic-49" transform="translate(2293.261719 0)"/>
    <use xlink:href="#DejaVuSerif-Italic-44" transform="translate(2332.763672 0)"/>
    <use xlink:href="#DejaVuSerif-Italic-73" transform="translate(2412.939453 0)"/>
    <use xlink:href="#DejaVuSerif-Italic-2e" transform="translate(2464.257812 0)"/>
   </g>
  </g>
 </g>
</svg>
